<?xml version="1.0" encoding="utf-8"?>
<!-- Generator: Adobe Illustrator 26.1.0, SVG Export Plug-In . SVG Version: 6.00 Build 0)  -->
<svg version="1.1" id="Layer_1" xmlns="http://www.w3.org/2000/svg" xmlns:xlink="http://www.w3.org/1999/xlink" x="0px" y="0px"
	 viewBox="0 0 1366 768" style="enable-background:new 0 0 1366 768;" xml:space="preserve">
<style type="text/css">
	.st0{fill:#FFFFFF;}
	.st1{fill:#6E77A4;}
</style>
<path class="st0" d="M313,528.88c0-96.62,0-193.25,0-289.88c246.5,0,493,0,739.5,0c0,96.62,0,193.25,0,289.88
	C806,528.88,559.5,528.88,313,528.88z M320.31,246.64c0,89.67,0,179.08,0,268.63c239.84,0,479.54,0,719.3,0
	c0-89.6,0-179.08,0-268.63C799.82,246.64,560.16,246.64,320.31,246.64z"/>
<path d="M320.31,246.64c239.86,0,479.52,0,719.3,0c0,89.55,0,179.03,0,268.63c-239.75,0-479.46,0-719.3,0
	C320.31,425.72,320.31,336.31,320.31,246.64z M321.94,511.48c1.04,3.2,3.46,2.36,5.53,2.44c0.06,0,0.12,0,0.19,0
	c116.3,0,232.6,0,348.9,0c0.73,0,1.45,0,2.17,0c0-88.78,0-177.29,0-265.94c-0.89,0-1.57,0-2.25,0c-114.24,0-228.48,0-342.72,0
	c-3.06,0-6.12-0.02-9.18,0.01c-0.49,0.01-1.15,0.14-1.44,0.46c-1.21,1.36-1.4,2.99-1.39,4.81c0.05,83.07,0.04,166.14,0.06,249.21
	c0,1.15,0.35,2.3,0.59,3.78c-1.23,1.23-0.91,2.8,0.75,4.48C322.62,511.07,322.2,511.32,321.94,511.48z M1038.58,513.82
	c0-1.54,0-2.84,0-4.13c0-86.25,0-172.51,0-258.76c0-2.77-0.18-2.94-2.99-2.94c-116.99,0-233.98,0-350.97,0c-0.98,0-1.96,0-3.07,0
	c0,88.77,0,177.28,0,265.83C800.56,513.82,919.41,513.82,1038.58,513.82z"/>
<path class="st0" d="M554.77,443.27c0.49-0.36,0.98-0.72,1.46-1.08c2.26-0.15,4.27-0.83,5.81-2.62c0.15-0.18,0.59-0.16,0.89-0.16
	c3.49-0.01,6.97-0.05,10.45,0.03c0.52,0.01,1.02,0.6,1.54,0.91c0.29,0.17,0.59,0.42,0.9,0.45c1.71,0.15,3.07,0.76,3.83,2.44
	c0.26,0.59,0.68,1.24,1.2,1.56c1.66,1,2.8,2.24,2.85,4.29c0,0.17,0.32,0.31,0.44,0.5c0.33,0.53,0.9,1.06,0.91,1.61
	c0.08,3.3,0.03,6.59,0,9.89c0,0.35-0.13,0.97-0.26,0.99c-1.4,0.19-1.02,1.33-1.22,2.15c-0.07,0.29-0.09,0.81-0.23,0.85
	c-1.73,0.46-1.28,1.79-1.25,2.96c-0.49,0.36-0.98,0.71-1.47,1.07c-0.85,0.45-1.74,0.85-2.54,1.38c-0.77,0.5-1.38,1.43-2.2,1.65
	c-1.58,0.43-3.46-0.09-4.61,1.6c-2.7-0.51-5.77,1.42-8.17-1.23c-0.13-0.14-0.49-0.04-0.72-0.13c-1.48-0.59-2.94-1.19-4.41-1.8
	c-0.08-0.03-0.09-0.22-0.17-0.3c-0.83-0.82-1.74-1.58-2.48-2.47c-0.8-0.96-2.38-1.37-2.21-3.05c0.03-0.28-0.11-0.6-0.23-0.87
	c-0.7-1.48-1.65-2.89-2.09-4.45c-1.1-3.88,0.75-7.43,1.59-11.08c0.16-0.69,0.57-1.63,1.11-1.85
	C555.2,445.82,554.87,444.54,554.77,443.27z M576.41,450.71c-0.33-0.08-0.53-0.19-0.69-0.16c-0.89,0.2-1.94-0.39-2.5,1.17
	c-0.31,0.86-1.91,1.25-2.9,1.9c-0.67,0.43-1.26,1.03-1.97,1.38c-0.74,0.37-1.76-0.05-2.1,1.32c-0.17,0.69-1.35,1.19-2.16,1.64
	c-0.89,0.5-1.97,0.69-2.77,1.29c-0.89,0.66-1.55,1.62-2.31,2.45c0.22,0.27,0.44,0.54,0.66,0.81c0.7-0.45,1.4-0.9,2.1-1.34
	c1.06-0.67,2.11-1.35,3.18-2.01c0.43-0.27,0.86-0.58,1.34-0.71c1.43-0.38,2.07-2.26,3.84-2.01c0.18,0.02,0.39-0.5,0.64-0.7
	c0.94-0.75,1.89-1.49,2.87-2.19c0.89-0.63,1.86-1.17,2.72-1.84C576.55,451.58,576.41,451.04,576.41,450.71z"/>
<path class="st0" d="M603.84,439.16c-0.49-0.36-0.98-0.72-1.47-1.08c0.79-2.52-1.92-3.81-2.13-6.01c-0.06-0.59-0.9-1.15-0.87-1.7
	c0.24-4.07-1.27-8.24,1.23-12.24c0.84-1.35,1.49-2.79,2.73-3.84c1.1-0.92,2.32-1.71,3.35-2.71c1.42-1.39,2.85-2.54,4.98-2.68
	c0.88-0.05,1.69-0.78,2.58-0.95c1.13-0.21,2.82-0.67,3.37-0.12c1.4,1.39,2.98,0.91,4.49,1.19c0.63,0.12,1.3,0.29,1.81,0.65
	c0.89,0.64,1.55,1.84,2.5,2.11c2.52,0.7,3,3.29,4.78,4.64c0.58,0.44,1.17,1.13,1.33,1.81c0.41,1.71,0.65,3.35,1.44,5.07
	c1.48,3.22-1.15,6.34-1.41,9.61c-0.01,0.1-0.13,0.24-0.23,0.27c-1.85,0.56-1.05,2.03-1.13,3.21l0.05-0.05
	c-0.47,0.03-1.27-0.09-1.37,0.12c-0.78,1.61-2.38,2.22-3.59,3.3c-1.71,1.52-3.43,2.36-5.66,2.32c-0.33-0.01-0.74,0.11-0.98,0.32
	c-0.96,0.83-4.44,1.69-5.24,0.88c-1.93-1.97-4.27-1.06-6.44-1.32l0.05,0.05c0.02-0.24,0.14-0.59,0.03-0.7
	C606.86,440.16,605.7,438.97,603.84,439.16z M618.06,427.78c0.08,0.91,0.01,1.87,0.29,2.71c0.21,0.61,1.09,0.99,1.33,1.6
	c0.65,1.68,1.63,1.11,2.76,0.58c-1.66-0.76-0.84-3.09-2.69-3.82c-0.38-0.15-0.45-1.53-1.63-1.13c0-1.41,0-2.82,0-3.92
	c1.87-1.12,3.55-2.1,5.19-3.15c0.36-0.23,0.55-0.72,0.82-1.09c-0.4-0.18-0.91-0.62-1.19-0.5c-1.51,0.63-2.97,1.38-4.44,2.12
	c-0.87,0.44-1.7,0.93-2.53,1.39c-1.48-2.42-2.69-4.4-3.94-6.44c-0.6,0.05-1.22,0.06-1.83,0.16c-0.2,0.03-0.52,0.28-0.51,0.42
	c0.01,0.25,0.17,0.55,0.36,0.74c1.07,1.1,2.41,2.01,2.51,3.76c0.01,0.23,0.1,0.65,0.21,0.66c1.88,0.33,1.08,1.68,1.16,2.37
	c-0.89,0.78-1.47,1.72-2.2,1.85c-2.42,0.44-3.57,2.11-4.97,4.51c1.14-0.14,2.11,0.03,2.48-0.36c1.12-1.17,2.04-2.52,3.88-2.6
	c0.23-0.01,0.63-0.14,0.64-0.25c0.25-1.91,1.61-0.94,2.52-1.11c-0.05,0.19-0.09,0.37-0.14,0.56
	C616.79,427.16,617.42,427.47,618.06,427.78z"/>
<path d="M487.19,380.41c0,2.01,0.18,3.95-0.08,5.82c-0.13,0.9-1.09,1.69-1.68,2.53c-0.4,0.57-0.83,1.12-1.23,1.69
	c-0.63,0.91-1.04,2.15-1.9,2.7c-1.83,1.18-2.43,3.17-3.7,4.71c-0.74,0.9-1.55,1.74-2.36,2.58c-0.6,0.62-1.36,1.12-1.86,1.82
	c-0.7,0.98-1.11,2.18-1.86,3.1c-1.09,1.33-2.4,2.47-3.56,3.73c-0.69,0.75-1.22,1.65-1.94,2.37c-1.11,1.11-2.3,2.14-3.47,3.19
	c-0.64,0.58-1.38,1.07-1.95,1.71c-1.18,1.32-2.12,2.92-3.47,4.02c-1.51,1.23-3.39,2.01-5.05,3.06c-0.54,0.34-0.92,0.95-1.39,1.42
	c-1.26,1.3-2.51,2.59-3.78,3.87c-0.16,0.16-0.42,0.27-0.65,0.33c-2.12,0.58-3.46,2.19-4.91,3.66c-0.2,0.21-0.49,0.39-0.77,0.45
	c-1.62,0.38-2.71,1.43-3.68,2.69c-0.16,0.2-0.55,0.38-0.8,0.34c-1.61-0.24-1.87,1.57-3.07,1.98c-0.64,0.22-1.14,0.82-1.73,1.2
	c-0.92,0.59-1.85,1.15-2.79,1.71c-0.55,0.33-1.12,0.61-1.67,0.93c-0.84,0.49-1.71,0.92-2.48,1.49c-1.11,0.82-2.15,1.74-3.22,2.61
	c-0.05,0.04-0.09,0.1-0.14,0.12c-1.52,0.61-3.07,1.15-4.55,1.83c-1.11,0.51-2.12,1.25-3.22,1.81c-1.5,0.76-2.52,2.47-4.51,2.24
	c-0.85,2.45-4.12,0.39-5.1,2.72c-0.09,0.23-0.94,0.15-1.43,0.19c-1.12,0.09-2.07,0.12-3.12,1.03c-0.85,0.73-2.61,0.4-3.96,0.56
	c-0.99,0.11-2.16-0.28-2.74,1.05c-0.1,0.23-0.78,0.26-1.19,0.28c-1.31,0.07-2.65-0.06-3.93,0.16c-7.81,1.35-15.68,1.15-23.54,0.97
	c-3.02-0.07-6.22-0.28-8.96-1.37c-1.89-0.75-4.6-1.22-5.33-3.91c-3.25-1.59,1.28-2.52,0.42-4.05c-0.09-0.16,1.54-1.1,2.12-1.87
	c1.07-1.42,2.09-2.71,3.96-3.18c0.72-0.18,1.31-0.99,1.9-1.57c1.65-1.6,3.2-3.31,4.92-4.82c0.86-0.75,2.24-0.6,2.98-1.89
	c0.77-1.36,2.68-1.46,3.76-2.82c0.77-0.98,2.53-1.12,3.67-1.89c1.84-1.23,4.19-1.57,5.66-3.52c0.63-0.84,1.88-1.3,2.94-1.71
	c1.78-0.7,4.24-0.69,5.31-1.93c1.64-1.89,4.05-0.54,5.53-2.12c0.3-0.32,1.07-0.15,1.57-0.33c0.86-0.31,1.67-0.75,2.51-1.1
	c0.38-0.16,0.79-0.24,1.19-0.32c1.36-0.27,3.04,0.45,3.91-1.3c2.41,0.44,4.13-1.59,6.38-1.79c0.67-0.06,1.3-0.61,1.94-0.95
	c0.11-0.06,0.2-0.24,0.28-0.22c2.34,0.35,4.06-1.46,6.22-1.78c2.21-0.33,4.7-0.35,6.5-1.44c1.54-0.93,3.36-0.59,4.43-1.42
	c1.62-1.27,3.75-0.59,4.88-1.52c1.44-1.18,3.3-0.61,4.19-1.43c1.62-1.5,4-0.51,4.95-1.51c1.83-1.93,4.43-0.46,6.1-2.1
	c0.29-0.28,0.95-0.18,1.43-0.27c1.41-0.28,3.15,0.52,4.12-1.33c0.13-0.25,0.94-0.12,1.43-0.21c1.06-0.2,2.48,0.44,2.93-1.25
	c0.03-0.11,0.45-0.18,0.69-0.16c2.26,0.13,3.73-1.16,5.25-2.63c1.29-1.24,3-2.04,4.35-3.22c0.89-0.77,1.45-1.91,2.22-2.83
	c1.75-2.09,3.43-4.21,5.83-5.71c1.18-0.75,1.85-2.27,2.84-3.36c0.85-0.93,1.74-1.88,2.77-2.59
	C484.83,380.08,484.87,380.14,487.19,380.41z M429.57,437.92c1.07-0.21,2.21,0.22,3.04-1.21c0.54-0.94,2-1.35,3.04-2.01
	c0.3-0.19,0.57-0.41,0.84-0.64c0.88-0.73,1.87-1.38,2.62-2.23c1.1-1.26,3.14-0.8,4.06-2.55c0.6-1.13,1.77-2.38,2.93-2.71
	c2.33-0.67,3.4-2.75,5.23-3.92c1.58-1.01,2.95-2.35,4.4-3.55c0.59-0.49,1.18-0.98,1.74-1.51c0.83-0.78,1.62-1.6,2.44-2.4
	c1.08-1.05,2.19-2.08,3.27-3.13c0.81-0.8,1.61-1.62,2.4-2.44c1.14-1.19,2.12-2.59,3.43-3.52c1.12-0.8,1.75-1.69,2.31-2.89
	c0.48-1.04,1.45-1.86,2.22-2.76c0.68-0.79,1.44-1.52,2.07-2.34c0.75-0.98,1.34-2.08,2.11-3.05c1.35-1.71,3.09-3.12,3.75-5.32
	c0.08-0.27,0.31-0.52,0.53-0.71c1.11-0.99,2.55-1.73,2.41-3.58c-0.02-0.22,0.32-0.45,0.48-0.69c0.26-0.39,0.51-0.79,0.76-1.18
	c-0.44-0.12-0.95-0.44-1.32-0.32c-0.57,0.19-1.09,0.62-1.55,1.04c-0.65,0.59-1.23,1.26-1.84,1.9c-1.21,1.25-2.48,2.45-3.62,3.77
	c-0.83,0.96-1.34,2.2-2.22,3.08c-2.12,2.1-4.54,3.9-6.52,6.11c-2.07,2.31-4.26,4.11-7.44,4.45c-0.33,0.03-0.64,0.31-0.95,0.48
	c-0.49,0.27-0.94,0.69-1.45,0.8c-2.19,0.47-4.4,0.85-6.6,1.28c-0.23,0.04-0.58,0.15-0.63,0.3c-0.43,1.33-1.59,0.89-2.5,1.09
	c-2.44,0.53-4.87,1.1-7.29,1.67c-0.15,0.04-0.25,0.27-0.4,0.35c-0.65,0.33-1.28,0.76-1.98,0.94c-2.47,0.64-4.97,1.17-7.45,1.78
	c-0.21,0.05-0.36,0.32-0.57,0.44c-0.48,0.28-0.96,0.66-1.49,0.77c-2.18,0.48-4.38,0.88-6.57,1.32c-0.18,0.04-0.45,0.11-0.49,0.22
	c-0.5,1.49-1.8,0.99-2.83,1.16c-0.55,0.09-1.46,0.01-1.58,0.29c-0.65,1.46-1.93,1.05-3.02,1.25c-0.42,0.08-1.12,0.08-1.2,0.31
	c-0.57,1.45-1.82,1.01-2.86,1.16c-0.49,0.07-1.33-0.04-1.43,0.18c-1.03,2.3-3.71,0.84-5.35,2.5c-1.26,1.27-4.14,0.89-6.26,1.39
	c-2,0.47-3.95,1.12-5.92,1.7c-0.05,0.02-0.08,0.09-0.13,0.12c-1.71,0.89-3.38,1.85-5.13,2.63c-1.52,0.68-3.14,1.15-4.71,1.72
	c-0.1,0.04-0.16,0.18-0.26,0.24c-1.28,0.73-2.53,1.51-3.84,2.16c-1.43,0.71-2.92,1.29-4.38,1.94c-0.1,0.04-0.14,0.2-0.24,0.28
	c-1.66,1.29-3.32,2.57-4.97,3.87c-0.56,0.44-1.03,1.01-1.64,1.38c-1.17,0.72-2.44,1.28-3.6,2.02c-0.63,0.4-1.12,1.03-1.66,1.57
	c-1.65,1.64-3.25,3.34-4.97,4.9c-1.1,1-2.49,1.69-3.55,2.72c-0.68,0.66-1,1.68-1.74,2.99c2.65-0.17,3.65,2.26,5.79,1.72
	c0.08-0.02,0.26,0.1,0.29,0.19c0.46,1.39,1.66,1.13,2.66,1.13c9.05,0.01,18.11,0,27.16-0.04c0.52,0,1.06-0.22,1.56-0.41
	c0.69-0.27,1.34-0.78,2.05-0.87c1.36-0.18,2.74-0.11,4.11-0.2c0.47-0.03,0.94-0.19,1.38-0.36c0.86-0.32,1.67-0.79,2.55-1
	c0.95-0.23,2.57,0.09,2.83-0.4c0.78-1.46,1.97-0.99,3.05-1.17c0.54-0.09,1.38-0.05,1.56-0.36c0.95-1.64,2.86-1.2,4.18-2.08
	c1.3-0.87,3.27-0.92,4.3-1.97c0.82-0.84,1.65-0.95,2.51-1.39c1.3-0.67,2.39-1.77,3.6-2.64c0.77-0.55,1.55-1.12,2.4-1.51
	c1.28-0.58,2.99-0.66,3.84-1.58c0.78-0.84,2.65-0.9,2.35-2.67L429.57,437.92z"/>
<path d="M392.1,285.43c1.18-0.14,1.99,0.1,3.01,1.03c0.98,0.9,2.02,2.36,3.97,2.07c1.83-0.27,3.74,0.07,5.6-0.07
	c0.89-0.07,1.74-0.61,2.8-1.01c0.89,0.76,2.06,1.99,3.47,2.85c0.91,0.56,2.18,0.53,3.26,0.85c0.76,0.23,1.47,0.63,2.22,0.92
	c0.44,0.17,0.89,0.41,1.34,0.41c3.81,0.03,7.62,0.05,11.42-0.03c0.62-0.01,1.23-0.57,1.84-0.89c0.15-0.08,0.25-0.3,0.41-0.34
	c1.86-0.43,3.72-0.84,5.58-1.25c1.03-0.23,2.49,0.49,2.84-1.27c0.01-0.04,0.1-0.07,0.16-0.1c1.53-0.57,3.13-1.02,4.58-1.75
	c1.34-0.68,2.51-1.69,3.79-2.51c0.35-0.23,0.83-0.27,1.61-0.5c-0.57,1.94,0.12,3.15,1.32,4.11c0.3,0.24,0.74,0.45,1.1,0.43
	c1.7-0.13,3.47,0.48,5.02-1.12c0.61-0.63,2.28-0.16,3.44-0.37c0.62-0.11,1.18-0.59,1.75-0.92c0.15-0.09,0.29-0.38,0.38-0.36
	c2.32,0.55,3.93-1.35,5.99-1.73c0.61-0.11,1.12-0.75,1.82-1.26c1.86,1.41,4.29,2.63,5.8,4.57c1.47,1.88,3.09,1.23,4.69,1.37
	c1.54,0.14,3.12,0.02,4.67-0.14c1.09-0.11,2.02-0.28,3.14-1.05c1.73-1.19,3.93-2.91,6.48-1.89c1.03,0.42,1.88,1.3,2.81,1.97
	c0.46,0.33,0.91,0.69,1.39,0.99c0.53,0.34,1.08,0.64,1.65,0.93c0.4,0.2,0.84,0.52,1.24,0.49c1.78-0.13,3.81,0.86,5.23-1.17
	c0.21-0.31,1.1-0.07,1.61-0.27c0.69-0.26,1.29-0.8,1.99-1.01c0.53-0.16,1.18-0.07,1.75,0.05c0.2,0.04,0.27,0.63,0.49,0.69
	c1.43,0.45,3.21,0.01,4.14,1.69c6.2,1.44,12.5,1.84,18.76,1.01c1.95-0.26,4.42-1.01,5.51-3.39c0.1-0.22,1.12-0.35,1.28-0.16
	c0.6,0.7,1.02,1.56,1.62,2.56c3.17,0,6.59,0.03,10.01-0.04c0.4-0.01,0.8-0.52,1.2-0.8c0.23-0.16,0.44-0.38,0.7-0.48
	c1.46-0.58,2.95-1.1,4.39-1.72c0.25-0.11,0.28-0.68,0.53-0.82c0.39-0.22,1.03-0.47,1.32-0.3c0.59,0.35,1.37,0.91,1.46,1.48
	c0.28,1.64,1.47,1.25,2.4,1.26c3.18,0.04,6.37,0.03,9.55-0.08c0.59-0.02,1.13-0.75,1.76-0.9c1.26-0.29,2.55-0.53,3.84-0.53
	c1.07,0,2.58-0.72,2.98,1.21c0.04,0.18,0.75,0.31,1.15,0.31c2.43-0.01,5.05,0.49,7.23-0.27c1.62-0.56,3.77-0.61,4.99-2.36
	c0.23-0.33,1.03-0.37,1.57-0.37c3.87-0.03,7.73,0.01,11.6-0.05c0.89-0.01,2.04,0.37,2.45-1.07c0.07-0.24,1.01-0.22,1.54-0.36
	c1.04-0.28,2.08-0.58,3.46-0.96c0.11,0.5,0.32,1.39,0.56,2.42c3.05,0,6.16,0.11,9.26-0.04c1.75-0.08,2.42,1.51,3.78,1.96
	c0.09,0.03,0.01,0.57,0.01,1.05c-1.19-0.31-2.68,0.92-3.32-1.07c-0.06-0.19-0.66-0.3-1-0.3c-2.62,0-5.24-0.03-7.86,0.09
	c-0.57,0.03-1.12,0.62-1.79,1.02c-0.89-0.74-1.87-1.56-2.53-2.11c-1.06,0.33-1.97,0.72-2.92,0.88c-1.53,0.26-3.13-0.22-4.48,1.22
	c-0.81,0.86-4-0.28-5.09-0.67c-1.27-0.45-3.06-0.57-4.14,0.04c-0.64,0.36-1.23,0.85-2.04,1.01c-0.35,0.07-0.65,0.38-0.96,0.62
	c-0.27,0.2-0.47,0.6-0.75,0.65c-2.21,0.42-4.43,0.95-6.67,1.1c-2.18,0.15-4.26-0.27-5.94-2.06c-0.39-0.42-1.71-0.12-2.55,0.08
	c-0.72,0.17-1.34,0.85-2.07,0.97c-2.66,0.43-5.34,0.98-8.02,0.99c-2.23,0.01-4.46-0.66-6.69-1.05c-0.19-0.03-0.46-0.26-0.5-0.43
	c-0.28-1.57-2.08-0.9-2.12-0.77c-0.63,2.03-3.13,0.69-3.92,2.26c-3.56,0-6.74,2.66-10.41,1.56c-1.22-0.37-2.31-1.21-3.44-1.86
	c-0.24-0.14-0.51-0.57-0.63-0.52c-1.31,0.54-2.59,1.12-3.86,1.74c-0.22,0.11-0.29,0.62-0.49,0.66c-2.56,0.55-5.12,1.29-7.71,1.47
	c-1.82,0.12-3.96,0.78-5.53-1.15c-0.29-0.36-1.32-0.1-2-0.2c-1.25-0.18-2.79,0.45-3.53-1.23c-0.03-0.08-0.22-0.1-0.34-0.12
	c-1.89-0.42-3.77-0.93-5.67-1.22c-1.62-0.24-3.14,0.38-4.72,0.73c-2.74,0.61-5.77,0.61-8.55,0.13c-1.83-0.32-3.68-1.5-4.89-3.36
	c-0.28-0.43-1.84-0.05-2.8,0.01c-0.1,0.01-0.12,0.57-0.27,0.62c-1.7,0.64-3.39,1.38-5.15,1.8c-2.17,0.51-4.4,0.88-6.62,1.02
	c-2.08,0.13-3.87-0.58-5.46-2.2c-0.97-0.99-1.98-2.05-3.02-2.87c-0.74-0.59-2.51,0.06-3.8,0.26c-0.39,0.06-0.69,0.59-1.08,0.69
	c-1.33,0.33-3.04-0.37-3.8,1.45c-4.32,0.9-8.6,2.49-13.07,1.52c-1.13-0.24-2.01-1.66-2.77-2.34c-1.11,0.37-2.43,0.45-3.15,1.15
	c-1.01,0.97-2.06,1.37-3.35,1.59c-0.83,0.14-1.67,0.47-2.4,0.9c-2.03,1.21-4.6,1-6.49,2.57c-0.29,0.24-0.8,0.29-1.21,0.29
	c-5.24,0.02-10.49,0.04-15.73-0.01c-0.55-0.01-1.1-0.5-1.65-0.78c-0.36-0.18-0.73-0.55-1.06-0.51c-2.23,0.29-3.6-1.05-5.1-2.35
	c-0.48-0.42-1.77-0.4-2.4-0.05c-2.13,1.15-4.15,1.06-6.25,0.06c-0.43-0.21-0.96-0.34-1.43-0.32c-1.97,0.09-3.03-1.24-4.16-2.51
	c-0.55-0.62-2.05-0.6-1.35-2.04L392.1,285.43z"/>
<path d="M517.28,321.32c2.2-0.4,3.27,1.12,4.4,2.56c0.86,1.09,1.78,2.13,2.66,3.2c0.14,0.17,0.25,0.38,0.35,0.59
	c1.34,2.92,1.23,6.04,1.23,9.15c0,1.25-0.06,2.49-0.06,3.74c0,2.13-0.66,3.95-2.32,5.37c-0.15,0.13-0.18,0.45-0.2,0.69
	c-0.18,1.75-1.91,2.44-2.6,3.67c-1.16,2.1-3.96,1.69-4.88,3.81c-0.06,0.13-0.45,0.12-0.69,0.17c-1.36,0.29-2.84-0.16-4.01,1.31
	c-0.46,0.58-2.13,0.23-3.25,0.24c-1.37,0.02-2.76,0.09-4.11-0.09c-0.79-0.11-1.53-0.66-2.29-1.02c-0.1-0.05-0.21-0.23-0.27-0.21
	c-1.98,0.61-2.9-1.51-4.59-1.81c-0.86-0.16-1.54-1.28-2.31-1.96c-0.77-0.67-1.64-1.25-2.3-2.02c-0.81-0.95-1.44-2.05-2.13-3.1
	c-1.26-1.92-1.06-4.13-1.33-6.27c-0.09-0.69-1-1.28-1.07-1.97c-0.12-1.07-0.61-2.38,0.91-3.1c0.26-0.12,0.2-0.91,0.3-1.39
	c0.43-2.03,0.71-4.13,1.39-6.08c0.33-0.94,1.41-1.63,2.19-2.4c0.57-0.56,1.25-1.02,1.79-1.6c0.7-0.75,1.28-1.61,1.97-2.37
	c0.21-0.23,0.63-0.26,0.91-0.44c0.55-0.35,1.08-0.74,1.61-1.12c0.14-0.1,0.25-0.34,0.38-0.34c2.58-0.06,4.67-2.26,7.45-1.62
	c1.13,0.26,2.38-0.02,3.54,0.14c0.62,0.08,1.17,0.61,1.79,0.85c0.55,0.22,1.19,0.57,1.7,0.46c1.77-0.38,2.61,1.07,3.8,1.79
	c0.21,0.13,0.07,0.81,0.09,1.24c-0.89-0.1-2.4,0.03-2.54-0.35c-0.51-1.37-1.55-0.99-2.45-1.15c-1.45-0.25-3.1,0.34-4.24-1.24
	c-0.2-0.28-1.29-0.04-1.92,0.13c-0.94,0.25-1.9,1.07-2.73,0.93c-2.33-0.41-3.71,1.67-5.74,1.87c-0.08,0.01-0.14,0.18-0.22,0.27
	c-0.64,0.8-1.23,1.64-1.92,2.4c-0.54,0.59-1.15,1.14-1.82,1.58c-1.25,0.85-2.48,1.66-2.41,3.42c0.01,0.23-0.05,0.65-0.17,0.68
	c-1.78,0.5-1.2,1.99-1.25,3.11c-0.11,2.3,0.23,4.66-0.13,6.91c-0.36,2.28,1.35,3.63,2.01,5.37c0.71,1.87,2.72,3.25,4.22,4.79
	c0.6,0.61,1.29,1.29,2.06,1.55c1.73,0.57,3.55,0.89,5.33,1.34c0.38,0.1,0.78,0.29,1.06,0.55c0.75,0.69,4.7,1.21,5.18,0.41
	c0.82-1.36,2.03-0.81,3.08-1.11c1.46-0.41,2.96-0.86,4.24-1.62c0.88-0.52,1.3-1.76,2.13-2.4c1.3-1.01,2.63-1.88,2.75-3.73
	c0.02-0.25,0.26-0.49,0.41-0.73c0.34-0.54,0.72-1.06,1.01-1.63c0.16-0.31,0.08-0.95,0.25-1.01c1.49-0.54,1.09-1.8,1.14-2.85
	c0.07-1.49,0.03-2.99,0.01-4.49c-0.01-0.42,0.04-1.1-0.19-1.23c-2.18-1.28-0.45-4.3-2.64-5.68c-0.98-0.62-1.46-2.01-2.25-2.98
	c-0.47-0.58-1.01-1.3-1.66-1.47C516.79,322.7,517.1,322.05,517.28,321.32z"/>
<path d="M579.5,327c0.3,0,0.76-0.14,0.89,0.01c0.55,0.63,1.38,1.31,1.44,2.03c0.26,3.48,2.95,6.8,1.49,10.22
	c-0.79,1.86-0.98,3.66-1.44,5.49c-0.18,0.72-0.89,1.29-1.28,1.97c-1.23,2.12-2.25,4.43-4.52,5.68c-1.42,0.79-3.13,1.12-4.43,2.05
	c-3.99,2.87-8.4,0.89-12.59,1.29c-0.45,0.04-0.96-0.46-1.43-0.74c-0.25-0.15-0.46-0.49-0.7-0.5c-2.39-0.1-4.26-1.72-5.79-3.02
	c-1.4-1.19-3.38-2.45-3.71-4.92c-0.18-1.32-1.55-2.46-2.3-3.73c-0.27-0.45-0.41-1.03-0.42-1.56c-0.04-2.68-0.08-5.37,0.02-8.05
	c0.02-0.6,0.55-1.19,0.87-1.78c0.08-0.15,0.38-0.29,0.36-0.38c-0.55-1.93,1.42-2.86,1.79-4.46c0.19-0.82,1.02-1.53,1.65-2.2
	c1.3-1.37,2.66-2.67,4-4c0.08-0.08,0.12-0.25,0.21-0.28c1.85-0.59,3.68-1.24,5.56-1.72c1.08-0.28,2.1-0.13,3.18-1.01
	c0.73-0.59,2.56,0.15,3.89,0.34c0.18,0.03,0.35,0.5,0.48,0.48c2.47-0.39,4.43,1.05,6.8,2.08c0,0.13,0,0.59,0,1.05l-0.1,0.1
	c-1.29-0.24-2.59-0.44-3.87-0.75c-0.51-0.12-0.95-0.73-1.43-0.74c-2.8-0.08-5.61-0.07-8.42-0.02c-0.58,0.01-1.18,0.26-1.72,0.49
	c-0.6,0.26-1.12,0.68-1.72,0.95c-0.38,0.17-0.97,0.05-1.23,0.3c-1.52,1.47-2.96,3.02-4.44,4.54c-0.46,0.47-1.16,0.81-1.39,1.36
	c-0.66,1.61-1.12,3.3-1.7,4.94c-0.09,0.24-0.42,0.39-0.57,0.62c-0.27,0.44-0.55,0.89-0.7,1.38c-1.03,3.35,1.13,6.21,1.63,9.33
	c0.12,0.74,1.24,1.78,1.38,2.98c0.01,0.13,0.25,0.23,0.38,0.34c0.79,0.65,1.85,1.15,2.31,1.98c0.82,1.48,1.6,2.64,3.49,2.84
	c1.2,0.13,2.88,0.41,3.41,1.23c0.98,1.51,2.26,1.2,3.39,1.1c2.6-0.22,5.28,0.85,7.83-1.23c1.39-1.14,3.61-1.18,5.17-2.69
	c1.2-1.16,2.66-1.95,2.95-3.78c0.03-0.21,0.29-0.38,0.41-0.59c0.66-1.12,1.81-2.21,1.89-3.37c0.23-3.72,0.07-7.47,0.05-11.21
	c0-0.36-0.14-0.72-0.23-1.08c-0.27-1.11-0.55-2.23-0.82-3.34L579.5,327z"/>
<path d="M631.19,436.4c0.07-1.17-0.72-2.65,1.13-3.21c0.1-0.03,0.22-0.17,0.23-0.27c0.26-3.27,2.9-6.39,1.41-9.61
	c-0.79-1.72-1.03-3.35-1.44-5.07c-0.16-0.68-0.75-1.37-1.33-1.81c-1.78-1.34-2.26-3.93-4.78-4.64c-0.95-0.27-1.62-1.46-2.5-2.11
	c-0.5-0.36-1.18-0.54-1.81-0.65c-1.51-0.28-3.1,0.2-4.49-1.19c-0.55-0.55-2.24-0.09-3.37,0.12c-0.89,0.16-1.71,0.89-2.58,0.95
	c-2.12,0.13-3.56,1.29-4.98,2.68c-1.02,1-2.25,1.78-3.35,2.71c-1.24,1.05-1.89,2.48-2.73,3.84c-2.5,4-0.98,8.17-1.23,12.24
	c-0.03,0.54,0.81,1.11,0.87,1.7c0.21,2.2,2.91,3.49,2.13,6.01c-1.67-0.33-2.2-1.74-3.02-2.97c-1.26-1.89-0.47-4.47-2.33-6.16
	c-0.79-0.72-0.04-6.15,0.69-6.99c0.19-0.22,0.32-0.51,0.39-0.8c0.46-1.89,0.86-3.79,1.35-5.68c0.08-0.31,0.47-0.56,0.73-0.82
	c1.22-1.22,2.38-2.5,3.67-3.63c0.88-0.77,1.95-1.33,2.92-2c0.41-0.28,0.78-0.61,1.16-0.93c0.13-0.11,0.17-0.37,0.31-0.41
	c3.88-1.29,7.93-2.51,11.87-1.27c1.47,0.46,2.99,0.91,4.5,1.36c0.66,0.19,1.17,0.87,1.76,1.31c1.42,1.09,2.97,2.05,4.24,3.3
	c0.9,0.88,1.39,2.17,2.15,3.21c2.88,3.9,2.74,8.41,2.49,12.88c-0.11,1.95-0.42,4.06-1.34,5.7
	C633.51,434.87,633.1,436.96,631.19,436.4z"/>
<path d="M582.1,468.04c-0.03-1.17-0.48-2.51,1.25-2.96c0.14-0.04,0.16-0.56,0.23-0.85c0.2-0.82-0.18-1.96,1.22-2.15
	c0.13-0.02,0.26-0.65,0.26-0.99c0.03-3.3,0.07-6.6,0-9.89c-0.01-0.54-0.58-1.08-0.91-1.61c-0.12-0.19-0.44-0.33-0.44-0.5
	c-0.04-2.04-1.19-3.29-2.85-4.29c-0.53-0.32-0.94-0.97-1.2-1.56c-0.75-1.69-2.11-2.29-3.83-2.44c-0.31-0.03-0.61-0.27-0.9-0.45
	c-0.52-0.31-1.02-0.9-1.54-0.91c-3.48-0.08-6.97-0.04-10.45-0.03c-0.3,0-0.74-0.02-0.89,0.16c-1.53,1.79-3.54,2.48-5.81,2.62
	c0.23-0.45,0.51-0.89,0.7-1.37c0.73-1.8,3.35-0.82,3.99-2.74c0.01-0.04,0.11-0.08,0.16-0.08c3.07,0.23,5.82-2.74,8.77-1.35
	c1.92,0.9,3.89,0.81,5.69,1.47c1.81,0.66,3.41,1.99,4.95,3.23c1.46,1.18,2.71,2.61,4.06,3.92c0.04,0.04,0.12,0.07,0.14,0.12
	c0.64,1.58,1.26,3.17,1.91,4.75c0.32,0.78,0.57,1.62,1.03,2.32c0.72,1.08,0.45,5.79-0.5,6.81c-0.12,0.13-0.34,0.28-0.34,0.41
	c0.04,1.97-0.66,3.65-1.51,5.44C584.52,466.7,583.78,467.73,582.1,468.04z"/>
<path d="M554.77,443.27c0.1,1.27,0.43,2.55-1.26,3.24c-0.54,0.22-0.95,1.17-1.11,1.85c-0.84,3.65-2.68,7.2-1.59,11.08
	c0.44,1.55,1.39,2.96,2.09,4.45c0.13,0.27,0.26,0.59,0.23,0.87c-0.17,1.68,1.41,2.09,2.21,3.05c0.75,0.89,1.65,1.65,2.48,2.47
	c0.08,0.08,0.09,0.27,0.17,0.3c1.46,0.61,2.93,1.22,4.41,1.8c0.22,0.09,0.59-0.02,0.72,0.13c2.39,2.65,5.46,0.72,8.17,1.23
	c1.15-1.69,3.02-1.17,4.61-1.6c0.82-0.22,1.43-1.15,2.2-1.65c0.8-0.53,1.69-0.93,2.54-1.38c0.17,0.8,0.3,1.4-0.73,1.96
	c-0.95,0.52-1.48,2.24-2.36,2.37c-1.96,0.3-3.63,1.44-5.44,1.7c-2.87,0.41-5.85,0.12-8.78,0.04c-0.47-0.01-0.93-0.52-1.4-0.78
	c-0.34-0.2-0.67-0.44-1.04-0.55c-0.7-0.21-1.73,0.2-1.78-1.11c0-0.12-0.49-0.3-0.77-0.33c-1.75-0.17-2.43-1.91-3.66-2.57
	c-2.1-1.12-2.05-3.49-3.7-4.88c-1.13-0.95-1.48-3.09-1.7-4.76c-0.28-2.21-0.14-4.48-0.09-6.73c0.03-1.19-0.47-2.63,1.18-3.32
	c0.2-0.08,0.29-0.7,0.24-1.04c-0.29-2.54,2.41-3.54,2.93-5.67C553.56,443.29,554.34,443.33,554.77,443.27z"/>
<path d="M533.95,304.35c0.03,0,0.13,0,0.14,0.03c0.99,3.3,2.52,6.49,2.08,10.08c-0.05,0.42-0.15,1.16-0.31,1.18
	c-1.91,0.24-1.29,1.7-1.29,2.73c-0.03,11.17-0.01,22.33-0.03,33.5c0,0.82-0.16,1.64-0.24,2.46c-0.24-0.01-0.48-0.02-0.72-0.02
	c-0.07-0.86-0.19-1.73-0.19-2.59c-0.01-11.23,0.01-22.46-0.02-33.69c0-0.91,0.58-2.25-1.2-2.39c-0.15-0.01-0.36-0.74-0.35-1.13
	c0.03-2.06-0.11-4.15,0.25-6.15C532.33,306.95,533.3,305.68,533.95,304.35z"/>
<path d="M392.08,285.45c-2.44-0.23-4.23,0.88-5.74,2.67c-0.19,0.22-0.71,0.13-1.02,0.3c-0.63,0.34-1.21,0.77-1.83,1.14
	c-0.24,0.15-0.51,0.27-0.78,0.35c-1.46,0.42-3.42,0.38-4.3,1.33c-1.71,1.84-3.97,0.6-5.5,1.53c-1.78,1.09-3.48,1.22-5.35,1.13
	c-1.12-0.05-2.74-1.7-2.73-2.87c2.97,0,5.96,0.14,8.92-0.05c1.78-0.11,3.79-0.33,5.22-1.25c1.77-1.13,3.49-2.13,5.45-2.92
	c1.67-0.67,3.06-2.06,4.53-3.19c0.22-0.17,0.17-0.68,0.26-1.09c0.83,0,1.63,0,2.68,0c0.06,1,0.12,1.95,0.19,2.9
	C392.1,285.43,392.08,285.45,392.08,285.45z"/>
<path d="M602.34,453.61c0.75-0.11,1.38-0.29,1.58,0.9c0.18,1.07,2.33,2.22,3.8,2.25c0.61,1.7,0.78,3.96,2,5.11
	c1.63,1.53,0.97,3.1,1.4,4.69c-2.14,0.92-3-0.77-4.07-1.76c-0.74-0.68-1.14-1.73-1.85-2.46c-0.8-0.82-1.79-1.46-2.65-2.14
	c0.46-0.77,1.04-1.42,1.21-2.17c0.09-0.39-0.67-0.92-0.82-1.45c-0.28-0.98-0.39-2.01-0.57-3.02L602.34,453.61z"/>
<path d="M607.95,441.96c2.17,0.26,4.51-0.65,6.44,1.32c0.8,0.82,4.28-0.04,5.24-0.88c0.24-0.21,0.65-0.33,0.98-0.32
	c2.24,0.04,3.95-0.8,5.66-2.32c1.21-1.07,2.81-1.69,3.59-3.3c0.1-0.21,0.9-0.09,1.37-0.12c0.08,2.3-1.16,3.94-3.25,4.61
	c-0.89,0.29-1.65,0.96-2.48,1.44c-0.62,0.36-1.21,0.83-1.88,1.03c-0.98,0.29-2.31-0.34-2.77,1.22c-0.04,0.14-0.56,0.2-0.86,0.21
	c-2.62,0.01-5.24,0.01-7.85-0.02c-0.29,0-0.81-0.09-0.84-0.23c-0.31-1.27-1.33-1.16-2.21-1.13
	C607.87,443.52,607.73,442.92,607.95,441.96z"/>
<path d="M596.73,444.99c-0.77,0.15-1.2,0.18-1.61-0.86c-0.49-1.23-1.77-2.13-2.55-3.28c-0.74-1.09-1.25-2.34-1.93-3.47
	c-0.39-0.64-0.93-1.18-1.39-1.78c-1.27-1.64-1.21-4.22-3.61-5.1c-0.22-0.08-0.28-0.62-0.41-0.95c-0.27-0.72,0.11-1.75-1.24-1.97
	c-0.28-0.05-0.31-1.63-0.47-2.65c0.54-0.03,1-0.17,1.09-0.05c0.74,1.03,1.42,2.09,2.09,3.16c0.52,0.84,0.95,1.74,1.53,2.53
	c1.17,1.58,2.44,3.1,3.63,4.67c0.17,0.23,0.23,0.57,0.27,0.87c0.19,1.59,1.77,2.25,2.35,3.5c0.75,1.64,2.59,2.74,2.39,4.82
	c-0.02,0.18-0.08,0.36-0.12,0.54C596.74,444.97,596.73,444.99,596.73,444.99z"/>
<path d="M573.53,321.35c2.91-0.13,6.03,2.83,5.97,5.65c0,0-0.02,0.01-0.02,0.01c-0.31,0.03-0.73,0.2-0.9,0.06
	c-0.74-0.62-1.39-1.33-2.1-2c-0.77-0.73-1.6-1.39-2.31-2.17c-0.36-0.39-0.5-0.97-0.74-1.46L573.53,321.35z"/>
<path d="M602.37,453.57c-1.54,0.79-1.3-1.08-1.86-1.27c-1.65-0.56-1.06-1.77-1.18-2.79c0,0,0.04-0.04,0.04-0.04
	c2.08-0.03,3.15,1.47,2.96,4.15C602.34,453.61,602.37,453.57,602.37,453.57z"/>
<path d="M596.74,444.97c2.03-0.52,1.68,1.57,2.49,2.37c0.38,0.38,0.12,1.39,0.15,2.12c0,0-0.04,0.04-0.04,0.04
	c-0.24,0.02-0.66,0.11-0.69,0.04c-0.65-1.52-2.75-2.43-1.92-4.56C596.73,444.99,596.74,444.97,596.74,444.97z"/>
<path d="M603.84,439.16c1.86-0.19,3.03,1,4.2,2.15c0.11,0.11-0.02,0.46-0.03,0.7c-1.64,0.55-2.69-0.81-3.99-1.32
	C603.79,440.61,603.89,439.69,603.84,439.16z"/>
<path class="st0" d="M988.42,309.99c0.49,0.36,0.98,0.72,1.47,1.08c0.11,0.85,0.02,1.78,0.36,2.52c0.72,1.57,2.58,2.53,2.43,4.59
	c-0.01,0.1,0.3,0.2,0.38,0.34c0.32,0.55,0.85,1.1,0.88,1.67c0.09,2.42,0.06,4.86,0.01,7.28c-0.01,0.36-0.31,0.72-0.49,1.07
	c-0.28,0.55-0.87,1.11-0.82,1.63c0.17,2-1.11,3.19-2.26,4.42c-0.97,1.03-2.37,1.72-3.15,2.86c-1.29,1.86-2.87,2.84-5.12,2.83
	c-0.32,0-0.64,0.29-0.96,0.45c-0.6,0.29-1.18,0.82-1.79,0.84c-2.74,0.08-5.47,0.02-8.21,0.02l0.05,0.05
	c0.18-0.78,0.26-1.69-0.89-1.44c-1.81,0.39-2.77-1.19-3.53-1.98c-1.04-1.07-1.89-1.26-3.12-1.12c0,0,0.05,0.05,0.05,0.05
	c-0.5-1.35-0.61-3.31-1.58-3.93c-1.67-1.08-1.28-2.92-2.25-4.25c-0.97-1.32-0.5-3.86-0.32-5.83c0.16-1.78-0.95-3.97,1.33-5.28
	c0.19-0.11,0.06-0.72,0.17-1.07c0.11-0.37,0.31-0.72,0.52-1.06c0.31-0.51,0.73-0.95,0.97-1.49c0.95-2.07,2.11-3.91,4.49-4.55
	c0.24-0.06,0.69-0.03,0.71-0.12c0.54-2.19,3.17-0.76,4.03-2.35c4.47-0.29,8.92-0.41,13.22,1.13c0.12,0.04,0.31,0.09,0.32,0.15
	C985.65,310.46,987.35,309.58,988.42,309.99z M968.28,325.69c6.11,0,12.24,0,18.36,0c0.46-2.54,0.36-2.66-2.02-2.66
	c-4.79,0.01-9.59,0.02-14.38,0.03C968,323.05,967.89,323.19,968.28,325.69z"/>
<path class="st0" d="M1018.41,442.2c0.99,0.86,1.98,1.72,2.97,2.57c0.07,0.98-0.13,2.65,0.26,2.8c1.34,0.52,1.18,1.51,1.36,2.48
	c0.04,0.2,0.28,0.36,0.4,0.55c0.33,0.57,0.89,1.14,0.91,1.73c0.1,2.67,0.07,5.36,0.01,8.03c-0.01,0.55-0.35,1.11-0.59,1.64
	c-0.23,0.49-0.53,0.94-0.8,1.4c-0.66,1.13-1.09,2.56-2.05,3.31c-1.04,0.81-1.24,1.53-1,2.63c0,0,0.05-0.05,0.05-0.05
	c-0.77,0.12-2.05,0.01-2.21,0.39c-1.14,2.59-4.25,2.14-5.81,3.97c-3.3-0.32-6.83,1.5-9.92-1.01c-0.26-0.21-0.76-0.34-1.07-0.25
	c-1.89,0.56-3.03-1.15-3.77-1.99c-1.05-1.18-1.93-1.19-3.13-1.12c0,0,0.05,0.05,0.05,0.05c0.89-2.01-1.09-3.15-1.93-3.93
	c-1.54-1.43-1.7-3.27-2-4.79c-0.53-2.69-0.31-5.57-0.1-8.35c0.11-1.43,0.45-3.4,1.42-4.07c1.47-1.01,1.12-2.05,1.11-3.25l-0.05,0.05
	c0.86,0.25,1.47,0.3,1.7-0.9c0.15-0.79,2.14-0.61,1.34-2.15c0,0-0.05,0.05-0.05,0.05c1.79-0.46,4.14-0.39,5.22-1.53
	c1.22-1.28,2.37-1.2,3.52-1.07c3.06,0.33,6.28-1.25,9.21,1.23C1014.67,441.67,1016.73,441.71,1018.41,442.2z M1012.56,464.01
	c0.55-2.65-1.18-3.55-2.17-4.87c-0.76-1.01-1.42-2.1-2.09-3.18c-0.08-0.13-0.07-0.44,0.03-0.54c0.62-0.62,1.21-1.34,1.95-1.77
	c1.15-0.68,2.5-1.04,3.6-1.78c0.76-0.5,1.25-1.4,2.11-2.41c-1.22,0.06-2.2-0.15-2.9,0.2c-1.29,0.64-2.43,1.59-3.61,2.45
	c-0.46,0.33-0.82,0.82-1.3,1.1c-0.25,0.15-0.75,0.12-1-0.04c-0.35-0.22-0.58-0.64-0.85-0.99c-0.74-0.94-1.49-1.86-2.2-2.82
	c-0.67-0.91-1.27-1.89-1.97-2.77c-0.11-0.13-0.64,0.08-0.95,0.13c-0.19,1.44,0.37,2.23,1.2,3.31c0.96,1.24,1.55,2.82,2.92,3.82
	c0.15,0.11,0.25,0.56,0.16,0.65c-0.68,0.7-1.34,1.82-2.14,1.94c-2.01,0.3-2.98,2.02-4.56,2.85c-0.26,0.13-0.18,0.89-0.26,1.36
	c0.17,0.12,0.35,0.25,0.52,0.37c0.98-0.6,2.29-0.99,2.86-1.86c0.98-1.5,3.35-0.34,3.93-2.32c0.03-0.1,0.97-0.15,1.12,0.05
	c0.52,0.66,0.87,1.46,1.3,2.2c0.61,1.05,1.12,2.17,1.88,3.1C1010.7,462.88,1011.6,463.31,1012.56,464.01z"/>
<path d="M739.02,459.14c-2.87,0-5.76,0.16-8.62-0.05c-2.53-0.18-5.11-0.53-7.53-1.27c-1.87-0.57-3.65-1.7-5.25-2.88
	c-2.06-1.53-1.59-4.16,0.69-5.51c0.78-0.46,1.43-1.16,2.05-1.84c1.16-1.26,2.15-2.7,3.41-3.86c1.2-1.1,2.63-1.94,3.98-2.86
	c0.85-0.58,2.18-0.92,2.51-1.7c0.75-1.79,2.96-1.24,3.79-2.84c0.5-0.96,1.56-1.63,2.36-2.44c0.09-0.09,0.15-0.21,0.26-0.26
	c2.06-0.97,4.18-1.85,6.18-2.93c1.28-0.69,2.39-1.69,3.57-2.55c0.1-0.07,0.16-0.22,0.26-0.24c1.2-0.21,2.31-0.2,3.26-1.43
	c0.51-0.66,1.94-0.68,2.97-1.43c1.52-1.1,4.04-0.84,5.49-1.99c1.75-1.39,4.24,0.01,5.7-2.15c0.41-0.6,2.26-0.14,3.42-0.37
	c0.74-0.14,1.39-0.67,2.1-0.97c0.43-0.18,0.9-0.28,1.36-0.39c1.04-0.25,2.43,0.36,2.93-1.29c0.06-0.21,0.92-0.17,1.4-0.26
	c1.11-0.21,2.54,0.45,3.12-1.25c0.08-0.22,0.92-0.16,1.41-0.26c0.95-0.19,2.22,0.31,2.61-1.17c0.03-0.11,0.31-0.17,0.49-0.21
	c2.17-0.44,4.35-0.83,6.51-1.32c0.57-0.13,1.06-0.56,1.58-0.88c0.15-0.09,0.29-0.37,0.39-0.34c2.63,0.58,4.54-1.76,7.05-1.75
	c0.95,0.01,2.17,0.34,2.66-1.11c0.08-0.23,0.89-0.22,1.36-0.32c1.17-0.24,2.69,0.45,3.33-1.26c0.06-0.15,0.57-0.12,0.87-0.18
	c1.24-0.25,2.77,0.33,3.53-1.31c0.07-0.16,0.58-0.13,0.89-0.18c2.62-0.43,5.25-0.83,7.85-1.33c0.42-0.08,0.69-0.8,1.13-0.96
	c0.68-0.25,1.45-0.24,2.17-0.39c0.82-0.17,1.96,0.34,2.28-1.01c0.03-0.13,0.31-0.32,0.44-0.29c2.22,0.5,3.61-1.59,5.64-1.81
	c0.73-0.08,1.47-0.89,2.05-1.52c1.54-1.69,2.91-3.54,4.5-5.17c1.19-1.23,2.7-2.15,3.92-3.36c1.12-1.11,2.02-2.42,3.04-3.63
	c0.56-0.66,1.11-1.34,1.72-1.95c1.44-1.44,2.85-2.94,4.43-4.21c0.52-0.42,1.77-0.54,2.29-0.2c0.74,0.49,1.51,1.49,1.59,2.34
	c0.23,2.38-0.34,4.53-2.31,6.27c-0.9,0.79-1.26,2.19-1.92,3.28c-0.5,0.82-1.01,1.65-1.64,2.37c-0.85,0.97-1.89,1.78-2.72,2.77
	c-0.94,1.11-1.7,2.37-2.62,3.5c-0.76,0.95-1.65,1.79-2.46,2.71c-0.67,0.76-1.34,1.52-1.92,2.33c-0.66,0.91-1.03,2.15-1.88,2.77
	c-1.74,1.27-2.66,3.15-4.07,4.63c-1.11,1.16-2.69,1.86-3.94,2.91c-0.77,0.65-1.24,1.67-1.98,2.37c-0.86,0.82-1.99,1.37-2.81,2.22
	c-1.35,1.39-3.12,2.19-4.43,3.72c-1.25,1.47-3.29,2.25-4.88,3.46c-0.8,0.61-1.3,1.59-2.05,2.27c-0.63,0.57-1.37,1.24-2.15,1.38
	c-1.78,0.32-2.84,1.32-3.57,2.86c-0.08,0.16-0.4,0.28-0.62,0.3c-1.84,0.14-2.83,1.44-3.83,2.74c-0.1,0.13-0.29,0.19-0.45,0.27
	c-1.04,0.55-2.61,0.85-3.02,1.71c-0.88,1.81-3.05,1-3.98,2.49c-0.93,1.5-3.05,1.24-4.24,2.73c-0.52,0.65-2.06,0.67-2.86,1.73
	c-1.07,1.42-3.25,1.16-4.39,2.77c-0.5,0.71-1.82,0.83-2.78,1.21c-1.52,0.6-3.04,1.19-4.56,1.81c-0.31,0.13-0.61,0.32-0.85,0.55
	c-0.16,0.15-0.2,0.62-0.3,0.62c-1.77,0.06-3.28,0.64-4.83,1.56c-1.16,0.69-2.89-0.18-4.11,1.38c-0.48,0.62-2.26,0.15-3.43,0.33
	c-0.65,0.1-1.24,0.53-1.86,0.8c-0.44,0.19-0.87,0.43-1.33,0.49c-0.8,0.1-1.62,0.05-2.43,0.11c-5.97,0.48-11.94,0.97-17.9,1.45
	C739.04,459.39,739.03,459.26,739.02,459.14z M793.86,439.42c0.95-0.17,2.08-0.07,2.81-0.57c1.76-1.19,3.34-2.65,4.99-4.02
	c0.51-0.43,0.96-1.24,1.49-1.28c1.82-0.17,2.74-1.56,3.98-2.52c0.73-0.57,1.46-1.15,2.23-1.66c1.03-0.68,2.18-1.19,3.15-1.94
	c1.77-1.36,3.44-2.85,5.16-4.27c1.17-0.96,2.5-1.77,3.5-2.88c1.06-1.18,1.95-2.43,3.61-2.81c0.3-0.07,0.54-0.41,0.79-0.65
	c0.83-0.8,1.63-1.64,2.47-2.42c0.53-0.5,1.2-0.86,1.68-1.4c1.17-1.29,2.22-2.69,3.4-3.98c1.17-1.28,2.53-2.39,3.63-3.71
	c1.71-2.06,3.02-4.51,4.96-6.29c1.66-1.52,2-3.88,3.85-5.08c1.21-0.79,1.17-2.35,1.98-3.12c2.2-2.07,3.88-4.45,5.49-7.36
	c-1.07,0-2.27-0.37-2.83,0.07c-1.62,1.3-2.97,2.93-4.45,4.4c-0.48,0.48-1.1,0.82-1.52,1.33c-1.51,1.82-2.85,3.78-4.46,5.49
	c-1.46,1.56-3.19,2.87-4.79,4.31c-1.15,1.02-2.44,1.94-3.38,3.13c-1.63,2.06-4.29,1.28-6.31,2.61c-1.72,1.13-4.29,0.95-6.49,1.36
	c-0.17,0.03-0.43,0.09-0.48,0.21c-0.69,1.51-2.12,1.01-3.28,1.2c-0.67,0.12-1.77-0.1-1.97,0.24c-0.93,1.64-2.47,1.06-3.78,1.3
	c-0.36,0.06-0.95,0.04-1.04,0.23c-0.68,1.55-2.09,1.06-3.25,1.25c-0.73,0.11-1.9,0-2.1,0.39c-0.66,1.28-1.73,0.96-2.72,1.1
	c-0.49,0.07-1.28,0.01-1.41,0.27c-0.77,1.54-2.19,1.03-3.39,1.27c-1.83,0.35-3.65,0.79-5.47,1.2c-0.12,0.03-0.3,0.07-0.33,0.14
	c-0.53,1.53-1.89,1.08-2.99,1.28c-0.42,0.07-1.1,0.06-1.2,0.29c-0.6,1.41-1.84,1-2.89,1.16c-0.55,0.08-1.45,0.03-1.57,0.3
	c-0.65,1.5-1.97,1.04-3.06,1.24c-0.36,0.07-0.98,0.02-1.06,0.2c-0.65,1.56-2.06,1.09-3.22,1.29c-0.43,0.07-1.15,0.03-1.23,0.24
	c-0.67,1.72-2.18,1.05-3.37,1.27c-2.14,0.41-4.28,0.79-6.42,1.23c-0.23,0.05-0.38,0.44-0.61,0.6c-0.37,0.27-0.76,0.56-1.19,0.7
	c-1.82,0.58-3.69,1.02-5.48,1.7c-1.11,0.42-2.08,1.18-3.12,1.77c-1.45,0.83-2.85,1.74-4.36,2.44c-2.24,1.05-4.55,1.95-6.83,2.93
	c-0.14,0.06-0.17,0.33-0.3,0.43c-1.14,0.82-2.29,1.64-3.46,2.42c-0.28,0.19-0.71,0.18-0.97,0.39c-1.73,1.35-3.38,2.81-5.16,4.1
	c-1.51,1.1-3.11,2.14-4.62,3.19c-2.36,1.64-3.89,4.44-6.21,6.15c-1.35,1-1.43,1.8-1.28,3.49c1.76,0.48,3.6,0.97,5.42,1.48
	c0.16,0.04,0.27,0.24,0.43,0.32c0.66,0.34,1.33,0.94,2,0.94c8.8,0.06,17.6,0.03,26.41,0.01c0.48,0,0.98-0.12,1.43-0.27
	c0.92-0.31,1.8-0.87,2.74-1.01c1.47-0.22,2.99-0.15,4.48-0.24c0.42-0.03,1.11-0.05,1.21-0.28c0.63-1.38,1.86-0.98,2.91-1.1
	c0.99-0.11,2.52,0.15,2.86-0.37c0.89-1.37,2.11-1.02,3.25-1.23c0.36-0.07,0.91-0.09,1.03-0.31c0.97-1.84,3.16-0.87,4.53-2.07
	c1.1-0.97,2.77-1.3,4.18-1.93c0.09-0.04,0.11-0.23,0.2-0.29c1.21-0.82,2.42-1.63,3.65-2.42c0.29-0.18,0.66-0.23,0.95-0.4
	c1.47-0.87,2.95-1.73,4.37-2.67c1.06-0.7,2.95-0.5,2.84-2.52C793.92,439.36,793.86,439.42,793.86,439.42z"/>
<path d="M818.22,283.92c-0.55-2.05,1.54-1.84,2.38-2.38c1.14-0.73,3.07,0.16,4.02-1.55c0.1-0.18,0.71-0.09,1.08-0.09
	c3.62-0.01,7.24,0,10.64,0c3.06,2.26,1.92,5.44,2.08,8.57c1.17,0,2.22-0.09,3.25,0.02c1.45,0.16,3.17-0.54,4.19,1.24
	c0.13,0.22,0.83,0.2,1.25,0.14c2.59-0.35,5.45,1.06,7.76-1.23c0.23-0.23,0.85-0.09,1.28-0.09c9.43,0.02,18.86,0.02,28.29,0.09
	c0.77,0.01,1.53,0.51,2.18,0.54c1.62-0.21,3.24-0.51,4.87-0.59c0.55-0.03,1.1,0.57,1.68,0.78c0.66,0.24,1.36,0.52,2.04,0.52
	c13.49,0.05,26.98,0.06,40.48,0.08c5.18,0.01,10.37,0.02,15.55,0.01c0.67,0,1.35-0.1,1.92-0.15c1.08-1.86,0.31-3.32-1.04-4.2
	c-1.54-1-2.65,0.79-4.05,1.74c0-1.87,0-3.21,0-4.71c1.92-0.49,3.8-0.78,5.51-1.47c0.83-0.34,1.37-1.41,2.03-2.16
	c-0.12-0.21-0.24-0.41-0.36-0.62c2.22,0,5.02-0.82,6.52,0.22c1.68,1.16,3.83,0.53,5.31,2.33c0.9,1.09,3.21,1.03,4.89,1.47
	c0.76,0.2,1.66-0.21,2.09,1.04c0.16,0.46,1.53,0.5,2.41,0.74c0.65,1.83,2.05,2.85,4.11,2.84c8.8-0.04,17.6-0.06,26.41-0.19
	c0.99-0.01,1.95-0.76,2.96-0.94c1.19-0.21,2.46-0.36,3.62-0.13c0.37,0.07,0.49,1.42,0.87,2.67c-5.29,0-10.14,0-14.99,0
	c-1.94,0-3.87-0.09-5.81-0.03c-1.09,0.03-2.4-0.4-3.03,1.12c-0.1,0.23-0.91,0.23-1.4,0.24c-2.56,0.02-5.12-0.04-7.68,0.03
	c-2.15,0.06-3.85-0.19-5.07-2.46c-0.44-0.82-1.57-2.61-3.43-2.08c-0.92-2.29-3.88-0.55-5.14-2.66c-0.49-0.83-2.29-0.97-3.53-1.23
	c-1.34-0.27-2.54-0.29-3.78-1.36c-1.5-1.29-3.7,0.1-4.25,2.48c-1,0-2.06-0.07-3.09,0.06c-0.22,0.03-0.6,1.04-0.46,1.19
	c1.05,1.13,2.38,2.03,3.25,3.27c0.42,0.59,0.37,2.06-0.09,2.59c-0.65,0.75-1.99,0.85-2.83,1.5c-3.27,2.51-6.99,0.94-10.49,1.26
	c-0.61,0.06-1.27-0.51-1.92-0.75c-0.56-0.2-1.15-0.48-1.72-0.48c-9.24-0.02-18.49-0.01-27.73,0.04c-0.68,0-1.34,0.45-2.02,0.67
	c-0.57,0.18-1.15,0.45-1.73,0.47c-1.56,0.07-3.13,0.14-4.68-0.01c-0.9-0.08-1.75-0.63-2.65-0.86c-0.76-0.2-1.57-0.34-2.35-0.35
	c-10.3-0.1-20.61-0.12-30.91-0.27c-2.37-0.04-4.92-1.21-7.07-0.64c-4.58,1.2-9.14,0.8-13.69,0.75c-3.28-0.03-6.56-0.71-9.83-1.11
	c-0.23-0.03-0.65-0.12-0.66-0.22c-0.26-1.76-1.68-1.01-2.63-1.24c-0.5-0.12-0.99-0.32-1.48-0.49c0.32-0.34,0.71-0.64,0.96-1.03
	c0.25-0.39,0.37-0.86,0.76-0.97c1.21-0.82,2.41-1.63,3.74-2.53c-1.33-1.45-2.58-2.46-4.54-2.08c-0.66,0.13-1.38-0.05-2.06,0.04
	c-2.83,0.36-5.66,0.69-8.46,1.22c-0.84,0.16-1.53,1.02-2.35,1.43c-0.34,0.17-0.85-0.01-1.28-0.02
	C818.29,283.98,818.22,283.92,818.22,283.92z"/>
<path d="M826.86,315.68c0.93-0.16,1.15,0.28,1.64,1.12c2.45,4.14,1.19,8.57,1.31,12.88c0.02,0.69-0.61,1.4-0.94,2.09
	c-0.1,0.22-0.31,0.42-0.33,0.64c-0.2,2.34-1.76,4.24-3.07,5.74c-1.2,1.37-2.46,3.65-5,3.52c-0.92,2.43-3.74,0.63-5.05,2.26
	c-0.2,0.25-0.82,0.2-1.25,0.21c-1.93,0.03-3.88,0.18-5.8-0.02c-1.83-0.19-4.12-0.21-5.3-1.29c-1.52-1.4-4.23-1.28-4.84-3.92
	c-0.18-0.77-1.61-1.2-2.33-1.93c-0.37-0.38-0.3-1.41-0.67-1.55c-1.89-0.74-0.64-3.45-2.66-4.07c-0.15-0.05-0.15-0.69-0.16-1.06
	c-0.01-3.55-0.22-7.12,0.1-10.64c0.12-1.4,1.39-2.7,2.16-4.03c0.11-0.2,0.45-0.32,0.47-0.5c0.23-1.92,1.43-3.02,3.01-3.96
	c0.66-0.39,1-1.3,1.49-1.97c0.17-0.24,0.33-0.59,0.57-0.66c1.63-0.5,3.29-0.89,4.91-1.41c0.69-0.22,1.3-0.67,1.96-1
	c0.32-0.15,0.66-0.35,1-0.36c2.18-0.02,4.42-0.29,6.53,0.1c1.84,0.34,3.54,1.43,5.29,2.22c1.24,0.56,2.72,0.9,3.63,1.81
	c1.59,1.6,3.97,2.92,3.37,5.84c-0.38-0.06-0.92,0.02-1.11-0.21c-1.15-1.35-2.17-2.8-3.31-4.15c-1.23-1.46-3.19-1.96-4.74-2.79
	c-2.12-1.13-4.93-1.03-7.46-1.29c-0.62-0.06-1.29,0.6-1.97,0.8c-1.62,0.47-3.24-0.04-4.98,1.34c-1.32,1.05-3.12,1.66-4.17,3.24
	c-0.36,0.54-0.73,1.11-1.21,1.54c-1.28,1.15-2.28,2.46-2.64,4.18c-0.08,0.36-0.02,0.97-0.21,1.06c-1.77,0.82-1.14,2.42-1.21,3.72
	c-0.1,1.8-0.01,3.62,0.06,5.42c0.02,0.45,0.21,0.92,0.4,1.34c0.3,0.66,0.71,1.26,1.01,1.92c0.17,0.37,0.13,0.85,0.35,1.17
	c0.86,1.2,1.68,2.46,2.71,3.5c1.4,1.41,2.26,3.55,4.68,3.68c0.24,0.01,0.65,0.09,0.67,0.2c0.35,1.79,1.81,1.02,2.83,1.26
	c0.52,0.12,1.04,0.27,1.53,0.47c0.7,0.28,1.43,0.96,2.05,0.87c2.59-0.38,5.15-0.98,7.71-1.51c0.1-0.02,0.26-0.14,0.27-0.21
	c0.05-1.35,1.18-0.99,1.93-1.22c0.34-0.1,0.75-0.13,1-0.34c0.96-0.84,1.93-1.69,2.77-2.65c0.76-0.86,1.21-2.01,2.05-2.76
	c1.42-1.26,0.19-3.75,2.29-4.6c-0.01-3.23-0.03-6.46-0.04-9.69C826.05,319.09,827.08,317.2,826.86,315.68z"/>
<path d="M867.9,311.19c-5.86,0-11.72-0.01-17.59,0.01c-0.81,0-1.81-0.32-1.98,1.05c-0.03,0.2-0.72,0.47-1.09,0.45
	c-1.62-0.1-3.31,0.63-4.78-1.04c-0.56-0.63-2.26-0.21-3.42-0.36c-0.64-0.08-1.25-0.34-1.87-0.53c0.36-0.38,0.95-0.71,1.05-1.15
	c0.37-1.59,1.6-1.12,2.63-1.32c1.27-0.24,2.49-0.78,3.76-0.94c1.35-0.16,2.79-0.64,3.99,0.71c0.34,0.38,1.25,0.36,1.9,0.36
	c11.1,0.02,22.2,0.09,33.3-0.07c1.66-0.02,2.31,1.08,3.41,1.69c0.04,0.02-0.19,0.94-0.42,1.01c-0.58,0.17-1.23,0.12-1.85,0.12
	C879.25,311.2,873.58,311.2,867.9,311.19C867.9,311.19,867.9,311.19,867.9,311.19z"/>
<path d="M796.88,285.44c0.22,0.79-0.32,1.04-0.72,1.6c-1.1,1.54-3.46,0.65-4.18,2.53c-0.07,0.19-0.68,0.17-1.03,0.28
	c-1.07,0.32-2.12,0.73-3.21,0.96c-0.65,0.14-1.51,0.27-2.01-0.03c-2.24-1.34-4.3-0.66-6.65-0.2c-2.62,0.51-5.46-0.09-8.2-0.27
	c-3.04-0.2-6.12-1.38-9.07,0.47c-0.39,0.24-0.96,0.27-1.44,0.27c-6.12-0.03-12.23-0.06-18.35-0.14c-0.51-0.01-1-0.39-1.53-0.49
	c-0.77-0.15-1.69-0.51-2.33-0.25c-4.04,1.63-8.25,1.19-12.28,0.59c-1.8-0.27-3.63-0.93-5.48-0.74c-1.78,0.18-3.57,0.63-5.28,1.19
	c-0.95,0.31-1.75,1.08-2.62,1.65c-0.15-0.15-0.3-0.31-0.46-0.46c0-0.69,0-1.39,0-2.24c0.88-0.07,1.68-0.1,2.47-0.21
	c0.79-0.11,1.76,0.2,2.12-1.03c0.08-0.27,0.98-0.4,1.51-0.42c2.12-0.06,4.25-0.11,6.36-0.01c0.61,0.03,1.2,0.55,1.81,0.82
	c0.49,0.22,1,0.54,1.51,0.56c1.81,0.07,3.62,0.05,5.43,0.04c0.31,0,0.73,0.04,0.91-0.14c2.88-2.74,6.35-0.62,9.48-1.19
	c4.87,2.78,10.16,0.8,15.22,1.32c0.8,0.08,1.94,0.38,2.18-1.08c0.03-0.21,0.87-0.27,1.31-0.45c0.41-0.17,0.93-0.3,1.17-0.62
	c0.94-1.25,1.95-0.81,3.02-0.29c0.68,0.33,1.37,0.87,2.07,0.88c3.93,0.1,7.86,0.1,11.79,0.06c0.77-0.01,1.85,0.3,2.08-1.02
	c0.01-0.06,0.84-0.16,1.03,0.03c1.63,1.6,5.66,1.53,7.38-0.13c0.22-0.22,0.68-0.16,0.99-0.32c0.68-0.36,1.28-0.93,1.99-1.14
	C794.84,285.56,795.87,285.56,796.88,285.44L796.88,285.44z"/>
<path d="M898.94,311.19c-0.23-2.6-0.11-2.74,2.13-2.74c10.98,0,21.96,0.01,32.94-0.01c1.42,0,2.91,0.3,4.07-1.08
	c0.29-0.34,1.48-0.36,1.95-0.05c2.31,1.48,4.91,0.7,7.34,1.12c0.11,0.02,0.22,0.1,0.41,0.2c0,0.75,0,1.54,0,2.49
	c-1.14,0.07-2.25,0.11-3.35,0.22c-0.86,0.09-1.76-0.17-2.31,1.04c-0.39,0.85-3.76,0.24-4.61-0.35c-0.74-0.51-1.8-0.79-2.72-0.8
	c-11.29-0.05-22.58-0.03-33.87-0.03C900.29,311.19,899.68,311.19,898.94,311.19z"/>
<path d="M975.28,495.15c0.88,2.19-1.14,3.14-2.02,4.56c-0.41,0.66-1.38,0.99-1.75,1.66c-0.91,1.64-2.73,1.72-3.95,2.61
	c-1.93,1.41-3.88,1.18-5.88,1.45c-0.25,0.03-0.45,0.41-0.71,0.5c-0.71,0.24-1.83,0.82-2.11,0.56c-1.85-1.76-4.15-0.83-6.18-1.31
	c-0.76-0.18-1.36-0.96-2.1-1.33c-0.95-0.48-2.11-0.63-2.93-1.25c-1.36-1.03-2.48-2.36-3.77-3.48c-1.36-1.19-1.07-3.41-2.8-4.35
	c-0.04-0.02-0.08-0.11-0.08-0.16c-0.05-3.2-2.46-6-1.6-9.36c0.08-0.3,0-0.79,0.17-0.88c1.61-0.9,1.16-2.47,1.23-3.81
	c0.06-1.19,0.55-1.38,1.53-1.09l-0.04-0.04c0.04,0.12,0.1,0.24,0.11,0.36c0.35,5.03-1.59,10.21,1.29,15.1
	c0.73,1.24,1.04,2.6,2.42,3.46c0.81,0.51,1.19,1.65,1.89,2.39c0.63,0.67,1.35,1.49,2.18,1.72c2.18,0.62,4.43,1.11,6.69,1.36
	c1.9,0.21,3.87,0.16,5.78-0.06c1.74-0.2,3.43-0.78,5.14-1.22c0.14-0.03,0.21-0.27,0.33-0.39c0.76-0.78,1.54-1.53,2.28-2.32
	c1.15-1.25,2.55-2.39,3.31-3.86c0.5-0.96,0.84-1,1.61-0.78L975.28,495.15z"/>
<path d="M896.25,331.3c-2.67-0.1-2.96,1.28-2.94,3.24c0.08,10.97,0.04,21.94,0.05,32.91c0,0.25,0.08,0.53-0.01,0.74
	c-0.25,0.6-0.56,1.18-0.85,1.77c-0.25-0.6-0.71-1.19-0.71-1.79c-0.04-11.59-0.02-23.19-0.04-34.78c0-0.84,0.42-1.99-1.11-2.07
	c-0.12-0.01-0.34-0.39-0.32-0.59c0.17-2.18-0.85-4.48,1.03-6.5c0.57-0.62,0.27-2.02,0.46-3.04c0.08-0.41,0.42-0.76,0.64-1.14
	c0.26,0.28,0.47,0.65,0.79,0.81c1.92,0.94,1.26,2.76,1.56,4.27c0.14,0.73,0.88,1.34,1.03,2.07
	C896.08,328.44,896.1,329.73,896.25,331.3z"/>
<path d="M988.42,309.99c-1.08-0.41-2.77,0.47-3.12-1.49c-0.01-0.07-0.21-0.11-0.32-0.15c-4.31-1.53-8.76-1.42-13.22-1.13
	c-0.86,1.58-3.49,0.16-4.03,2.35c-0.02,0.09-0.47,0.06-0.71,0.12c-2.38,0.64-3.54,2.48-4.49,4.55c-0.24,0.53-0.66,0.98-0.97,1.49
	c-0.2,0.33-0.4,0.69-0.52,1.06c-0.11,0.35,0.02,0.96-0.17,1.07c-2.28,1.31-1.17,3.5-1.33,5.28c-0.18,1.97-0.65,4.51,0.32,5.83
	c0.97,1.33,0.58,3.17,2.25,4.25c0.97,0.62,1.08,2.57,1.58,3.93c-0.87-0.6-1.88-1.07-2.58-1.82c-0.81-0.87-1.21-2.15-1.79-3.1
	c-2.76-4.61-0.88-9.43-1.16-14.11c-0.03-0.49,0.81-0.99,1.11-1.55c0.67-1.28,1.04-2.78,1.92-3.88c1.31-1.65,2.21-3.6,4.47-4.6
	c1.4-0.62,3.47-0.29,4.29-2.2c0.1-0.23,0.94-0.11,1.42-0.2c1.52-0.27,3.23,0.39,4.51-1.14c0.26-0.31,1.64-0.26,1.88,0.07
	c0.88,1.21,2.1,0.84,3.21,1.04c1.14,0.21,2.45-0.44,3.31,1.22c0.4,0.77,1.99,1.12,3.1,1.27
	C988.78,308.33,988.53,309.13,988.42,309.99z"/>
<path d="M982.41,467.83c0.76-0.12,1.04,0.24,1.63,0.8c1.71,1.61,1.88,4.07,3.91,5.61c1.6,1.22,2.1,3.86,3.16,5.83
	c0.46,0.85,1.11,1.61,1.68,2.39c0.9,1.23,1.68,2.59,2.76,3.64c1.04,1.01,2.39,1.7,3.96,2.78c0.02,0.26-0.02,1.09,0.19,1.85
	c0.17,0.63,0.66,1.16,0.97,1.76c0.21,0.41,0.37,0.86,0.51,1.3c0.12,0.4,0.11,1.15,0.29,1.19c1.94,0.48,0.77,1.87,1.09,3.05
	c-1.2-0.22-2.07,0.48-3.02-1.11c-1.1-1.83-3.29-2.99-4.98-4.48c-0.23-0.21-0.45-0.56-0.47-0.86c-0.05-0.74,0.13-1.5,0.03-2.23
	c-0.14-1.08,0.52-2.31-1.18-3.09c-0.92-0.42-1.25-2.04-1.93-3.06c-1.25-1.84-1.55-4.2-3.63-5.66c-0.72-0.51-0.86-2.17-1.95-2.83
	c-1.53-0.94-0.92-3.24-2.74-4.13c-0.44-0.21-0.2-1.82-0.28-2.79C982.42,467.81,982.41,467.83,982.41,467.83z"/>
<path d="M947.92,472.32c-0.2-0.77-0.28-1.21,0.79-1.63c1.48-0.58,2.72-1.76,4.13-2.57c0.44-0.26,1.08-0.24,1.63-0.25
	c2.74-0.03,5.49-0.07,8.23,0.01c0.98,0.03,2.36-0.54,2.69,1.15c0.01,0.04,0.09,0.09,0.15,0.11c1.58,0.59,3.17,1.18,4.74,1.79
	c0.3,0.12,0.58,0.32,0.8,0.56c1.25,1.32,2.48,2.67,3.72,4c0.08,0.09,0.24,0.13,0.27,0.22c0.59,1.51,1.13,3.06,1.78,4.55
	c0.32,0.72,1.05,1.3,1.24,2.03c0.24,0.94,0.17,1.98,0.17,2.97c0.01,1.68,0.02,3.37-0.06,5.05c-0.04,0.91,0.36,2.04-1.08,2.44
	c-0.23,0.06-0.35,0.89-0.34,1.36c0.03,1.18-0.5,1.42-1.51,1.06c0,0,0.02,0.03,0.02,0.03c-0.05-0.24-0.13-0.49-0.13-0.73
	c-0.01-1.64,0.9-2.98,1.37-4.43c1.13-3.51-0.01-7.1-1.54-10.27c-0.43-0.9-1.13-1.74-1.31-2.84c-0.03-0.17-0.33-0.28-0.49-0.44
	c-0.68-0.7-1.33-1.43-2.03-2.12c-0.69-0.68-1.33-1.53-2.17-1.93c-1.56-0.73-3.25-1.19-4.88-1.77c-0.15-0.06-0.24-0.27-0.39-0.36
	c-0.52-0.32-1.04-0.88-1.58-0.9c-2.3-0.09-4.61-0.05-6.91,0.02c-0.5,0.02-1,0.34-1.48,0.56c-0.55,0.26-1.07,0.61-1.63,0.86
	c-0.33,0.14-0.99,0.07-1.03,0.22C950.59,472.95,949.11,472.24,947.92,472.32L947.92,472.32z"/>
<path d="M971.14,341.59c2.74,0.01,5.48,0.07,8.21-0.02c0.6-0.02,1.19-0.55,1.79-0.84c0.32-0.16,0.64-0.45,0.96-0.45
	c2.25,0.01,3.83-0.97,5.12-2.83c0.79-1.13,2.18-1.82,3.15-2.86c1.15-1.23,2.43-2.43,2.26-4.42c-0.05-0.51,0.54-1.08,0.82-1.63
	c0.18-0.35,0.49-0.71,0.49-1.07c0.05-2.43,0.09-4.86-0.01-7.28c-0.02-0.57-0.55-1.12-0.88-1.67c-0.08-0.14-0.39-0.24-0.38-0.34
	c0.15-2.06-1.71-3.02-2.43-4.59c-0.34-0.74-0.26-1.67-0.36-2.52c0.88,0.71,1.91,1.3,2.62,2.16c1.03,1.26,1.88,2.69,2.7,4.1
	c0.26,0.45,0.27,1.08,0.28,1.63c0.02,3.42,0.06,6.84-0.05,10.26c-0.02,0.73-0.64,1.45-0.98,2.17c-0.12,0.26-0.38,0.51-0.38,0.77
	c0.03,1.83-1.15,2.72-2.53,3.56c-0.52,0.32-0.79,1.03-1.24,1.51c-1.26,1.34-2.52,2.68-3.86,3.95c-0.32,0.3-0.91,0.35-1.39,0.43
	c-1.04,0.16-2.32-0.27-2.76,1.27c-0.04,0.13-0.56,0.18-0.85,0.18c-3.05,0.02-6.1,0-9.15,0.05
	C971.15,343.11,970.86,342.6,971.14,341.59z"/>
<path d="M994,469.3c1.2-0.07,2.09-0.06,3.13,1.12c0.74,0.84,1.88,2.55,3.77,1.99c0.31-0.09,0.81,0.04,1.07,0.25
	c3.09,2.52,6.61,0.69,9.92,1.01c1.56-1.83,4.67-1.38,5.81-3.97c0.17-0.38,1.45-0.28,2.21-0.39c0.72,1.8-1.43,1.79-1.97,2.89
	c-0.42,0.86-2.14,1.23-3.09,1.8c-4.34,2.64-8.88,0.79-13.28,1.2c-0.57,0.05-1.2-0.58-1.8-0.91c-0.25-0.13-0.47-0.42-0.72-0.43
	c-1.77-0.09-2.63-1.42-3.69-2.54C994.79,470.7,993.36,470.74,994,469.3z"/>
<path d="M796.88,285.44c-0.2-0.79-0.31-1.42,0.89-1.54c0.6-0.06,1.12-0.69,1.71-1.01c0.35-0.19,0.75-0.36,1.14-0.38
	c1.49-0.07,2.99-0.13,4.48-0.07c0.81,0.03,1.56-0.18,2.17,1.08c0.8,1.65,6.39,2.9,7.85,1.78c1.01-0.78,1.69-1.72,3.11-1.38
	c0,0,0.07,0.06,0.07,0.06c0.15,0.77,0.19,1.22-0.86,1.62c-1.27,0.49-2.2,1.86-3.47,2.41c-0.99,0.43-2.37,0.49-3.41,0.17
	c-0.96-0.31-1.83-1.24-2.49-2.09c-0.92-1.18-5.91-2.98-6.73-1.96c-1.04,1.3-2.27,1.23-3.55,1.44
	C797.51,285.62,797.19,285.49,796.88,285.44C796.88,285.44,796.88,285.44,796.88,285.44z"/>
<path d="M1019.87,469.35c-0.23-1.09-0.04-1.82,1-2.63c0.96-0.74,1.39-2.18,2.05-3.31c0.27-0.46,0.58-0.91,0.8-1.4
	c0.25-0.53,0.58-1.09,0.59-1.64c0.06-2.68,0.09-5.36-0.01-8.03c-0.02-0.59-0.58-1.16-0.91-1.73c-0.11-0.2-0.36-0.35-0.4-0.55
	c-0.18-0.97-0.02-1.96-1.36-2.48c-0.39-0.15-0.19-1.82-0.26-2.8c1.7-0.45,1.97,1.4,2.64,2.08c1.09,1.11,1.61,3.05,1.78,4.71
	c0.28,2.77,0.2,5.6,0.07,8.39c-0.07,1.38-0.2,2.65-1.07,4.12c-0.95,1.61-1.91,2.98-3.16,4.36
	C1021.01,469.11,1020.72,469.5,1019.87,469.35z"/>
<path d="M992.55,444.96c0.01,1.2,0.36,2.24-1.11,3.25c-0.97,0.67-1.31,2.64-1.42,4.07c-0.21,2.78-0.43,5.66,0.1,8.35
	c0.3,1.52,0.46,3.36,2,4.79c0.83,0.78,2.82,1.92,1.93,3.93c-1.81,0.57-1.93-1.43-2.95-2.08c-0.74-0.47-0.67-2.05-1.28-2.91
	c-2.9-4.13-0.96-8.72-1.34-13.09c-0.05-0.58,0.66-1.21,0.95-1.85c0.23-0.53,0.24-1.19,0.55-1.66
	C990.67,446.68,990.45,444.73,992.55,444.96z"/>
<path d="M1018.41,442.2c-1.68-0.49-3.74-0.53-4.95-1.56c-2.93-2.48-6.16-0.9-9.21-1.23c-1.15-0.12-2.3-0.21-3.52,1.07
	c-1.08,1.14-3.43,1.07-5.22,1.53c0.01-0.31-0.1-0.81,0.04-0.89c1.08-0.65,2.47-0.98,3.28-1.85c2.14-2.3,4.88-1.04,7.3-1.58
	c0.55-0.12,1.03-0.56,1.46-0.45c1.37,0.21,2.75,0.39,4.11,0.65c0.97,0.19,2.31-0.55,2.75,1.15c0.07,0.26,1.18,0.14,1.69,0.42
	C1017.22,440.06,1018.54,440.55,1018.41,442.2z"/>
<path d="M979.81,463.7c-0.77,0.18-1.03-0.13-1.64-0.75c-1.52-1.52-1.4-4.25-3.83-5.01c-0.21-0.06-0.38-0.58-0.37-0.87
	c0.01-0.18,0.39-0.47,0.63-0.5c0.61-0.07,1.24-0.02,1.75-0.02c1.07,1.56,1.74,3.14,3.08,4.37c0.53,0.49,0.26,1.85,0.36,2.81
	C979.77,463.73,979.81,463.7,979.81,463.7z"/>
<path d="M942.33,479.45c0-1.24-0.62-2.57,1.16-3.37c0.69-0.31,1.17-1.5,1.4-2.38c0.47-1.85,1.78-1.49,3.04-1.38
	c0,0,0.01,0.01,0.01,0.01c-0.16,0.51-0.2,1.13-0.52,1.51c-0.86,1.02-2.01,1.69-2.77,2.94c-0.55,0.91-0.12,3.15-2.36,2.64
	L942.33,479.45z"/>
<path d="M963.64,337.1c1.23-0.13,2.08,0.05,3.12,1.12c0.76,0.79,1.73,2.36,3.53,1.98c1.15-0.25,1.07,0.66,0.89,1.44
	c-2.64,0.38-4.7-0.34-6.3-2.66C964.48,338.38,963.19,338.37,963.64,337.1z"/>
<path d="M979.77,463.73c0.24-0.03,0.65-0.14,0.69-0.07c0.7,1.37,2.56,2.21,1.94,4.18c0,0,0.02-0.02,0.02-0.02
	c-1.88,0.73-1.87-1.16-2.5-1.97c-0.36-0.46-0.1-1.42-0.11-2.15C979.81,463.7,979.77,463.73,979.77,463.73z"/>
<path d="M995.55,441.96c0.8,1.53-1.19,1.36-1.34,2.15c-0.23,1.2-0.85,1.15-1.7,0.9C992.39,442.4,992.92,441.88,995.55,441.96z"/>
<path d="M576.41,450.71c0,0.33,0.14,0.87-0.02,1c-0.86,0.67-1.83,1.2-2.72,1.84c-0.98,0.7-1.92,1.44-2.87,2.19
	c-0.25,0.2-0.46,0.73-0.64,0.7c-1.78-0.24-2.41,1.63-3.84,2.01c-0.48,0.13-0.91,0.44-1.34,0.71c-1.07,0.66-2.12,1.33-3.18,2.01
	c-0.7,0.45-1.4,0.9-2.1,1.34c-0.22-0.27-0.44-0.54-0.66-0.81c0.76-0.83,1.42-1.79,2.31-2.45c0.8-0.59,1.89-0.79,2.77-1.29
	c0.8-0.45,1.98-0.95,2.16-1.64c0.34-1.37,1.36-0.95,2.1-1.32c0.71-0.35,1.29-0.95,1.97-1.38c0.99-0.64,2.6-1.03,2.9-1.9
	c0.55-1.56,1.61-0.97,2.5-1.17C575.88,450.51,576.08,450.63,576.41,450.71z"/>
<path d="M618.06,427.78c-0.64-0.31-1.27-0.62-1.91-0.94c0.05-0.19,0.09-0.37,0.14-0.56c-0.91,0.17-2.27-0.8-2.52,1.11
	c-0.01,0.11-0.42,0.24-0.64,0.25c-1.84,0.08-2.76,1.42-3.88,2.6c-0.38,0.39-1.35,0.22-2.48,0.36c1.4-2.4,2.55-4.07,4.97-4.51
	c0.73-0.13,1.31-1.07,2.2-1.85c-0.08-0.69,0.72-2.04-1.16-2.37c-0.11-0.02-0.19-0.43-0.21-0.66c-0.1-1.75-1.44-2.66-2.51-3.76
	c-0.19-0.19-0.35-0.49-0.36-0.74c-0.01-0.14,0.31-0.39,0.51-0.42c0.61-0.1,1.23-0.11,1.83-0.16c1.25,2.04,2.46,4.02,3.94,6.44
	c0.82-0.45,1.66-0.95,2.53-1.39c1.46-0.74,2.93-1.49,4.44-2.12c0.28-0.12,0.78,0.32,1.19,0.5c-0.27,0.37-0.46,0.86-0.82,1.09
	c-1.64,1.05-3.32,2.02-5.19,3.15c0,1.1,0,2.51,0,3.92L618.06,427.78z"/>
<path d="M618.13,427.71c1.18-0.4,1.25,0.98,1.63,1.13c1.85,0.73,1.03,3.07,2.69,3.82c-1.14,0.54-2.11,1.11-2.76-0.58
	c-0.24-0.61-1.12-0.99-1.33-1.6c-0.29-0.84-0.21-1.8-0.29-2.71C618.06,427.78,618.13,427.71,618.13,427.71z"/>
<path class="st1" d="M429.63,437.86c0.3,1.77-1.57,1.83-2.35,2.67c-0.85,0.92-2.56,1.01-3.84,1.58c-0.85,0.38-1.63,0.95-2.4,1.51
	c-1.21,0.87-2.29,1.96-3.6,2.64c-0.86,0.44-1.68,0.56-2.51,1.39c-1.03,1.05-3,1.1-4.3,1.97c-1.32,0.88-3.22,0.44-4.18,2.08
	c-0.18,0.32-1.02,0.27-1.56,0.36c-1.08,0.18-2.26-0.29-3.05,1.17c-0.26,0.49-1.88,0.17-2.83,0.4c-0.88,0.21-1.69,0.68-2.55,1
	c-0.45,0.17-0.92,0.33-1.38,0.36c-1.37,0.09-2.76,0.02-4.11,0.2c-0.71,0.09-1.35,0.61-2.05,0.87c-0.5,0.19-1.04,0.41-1.56,0.41
	c-9.05,0.04-18.11,0.05-27.16,0.04c-1.01,0-2.2,0.26-2.66-1.13c-0.03-0.09-0.21-0.21-0.29-0.19c-2.14,0.54-3.14-1.89-5.79-1.72
	c0.74-1.31,1.07-2.34,1.74-2.99c1.06-1.03,2.45-1.72,3.55-2.72c1.72-1.56,3.32-3.26,4.97-4.9c0.54-0.54,1.03-1.16,1.66-1.57
	c1.16-0.74,2.43-1.3,3.6-2.02c0.6-0.37,1.08-0.94,1.64-1.38c1.65-1.3,3.32-2.58,4.97-3.87c0.09-0.07,0.14-0.23,0.24-0.28
	c1.46-0.65,2.95-1.23,4.38-1.94c1.32-0.65,2.57-1.43,3.84-2.16c0.1-0.06,0.16-0.2,0.26-0.24c1.57-0.57,3.18-1.04,4.71-1.72
	c1.75-0.78,3.43-1.74,5.13-2.63c0.05-0.03,0.08-0.1,0.13-0.12c1.97-0.58,3.93-1.23,5.92-1.7c2.12-0.5,5-0.11,6.26-1.39
	c1.65-1.66,4.32-0.2,5.35-2.5c0.1-0.23,0.94-0.11,1.43-0.18c1.04-0.15,2.29,0.3,2.86-1.16c0.09-0.23,0.78-0.23,1.2-0.31
	c1.09-0.2,2.37,0.21,3.02-1.25c0.12-0.27,1.03-0.2,1.58-0.29c1.03-0.17,2.33,0.34,2.83-1.16c0.04-0.12,0.31-0.19,0.49-0.22
	c2.19-0.44,4.39-0.83,6.57-1.32c0.53-0.12,1-0.49,1.49-0.77c0.21-0.12,0.36-0.39,0.57-0.44c2.48-0.6,4.98-1.14,7.45-1.78
	c0.7-0.18,1.33-0.61,1.98-0.94c0.15-0.08,0.25-0.31,0.4-0.35c2.43-0.57,4.86-1.14,7.29-1.67c0.91-0.2,2.07,0.24,2.5-1.09
	c0.05-0.15,0.4-0.26,0.63-0.3c2.2-0.43,4.41-0.81,6.6-1.28c0.52-0.11,0.97-0.53,1.45-0.8c0.31-0.17,0.62-0.45,0.95-0.48
	c3.18-0.33,5.37-2.14,7.44-4.45c1.98-2.21,4.41-4.01,6.52-6.11c0.89-0.88,1.4-2.13,2.22-3.08c1.14-1.32,2.41-2.52,3.62-3.77
	c0.61-0.63,1.19-1.31,1.84-1.9c0.46-0.42,0.98-0.85,1.55-1.04c0.36-0.12,0.87,0.2,1.32,0.32c-0.25,0.39-0.5,0.79-0.76,1.18
	c-0.16,0.24-0.49,0.47-0.48,0.69c0.14,1.85-1.31,2.59-2.41,3.58c-0.22,0.19-0.45,0.45-0.53,0.71c-0.66,2.2-2.4,3.61-3.75,5.32
	c-0.76,0.97-1.36,2.07-2.11,3.05c-0.63,0.83-1.39,1.55-2.07,2.34c-0.77,0.9-1.73,1.72-2.22,2.76c-0.56,1.2-1.19,2.1-2.31,2.89
	c-1.31,0.93-2.3,2.34-3.43,3.52c-0.79,0.82-1.58,1.64-2.4,2.44c-1.08,1.06-2.18,2.08-3.27,3.13c-0.82,0.79-1.61,1.61-2.44,2.4
	c-0.56,0.53-1.15,1.02-1.74,1.51c-1.45,1.2-2.83,2.54-4.4,3.55c-1.84,1.17-2.9,3.25-5.23,3.92c-1.16,0.34-2.33,1.58-2.93,2.71
	c-0.92,1.75-2.96,1.29-4.06,2.55c-0.75,0.85-1.73,1.5-2.62,2.23c-0.27,0.22-0.55,0.45-0.84,0.64c-1.04,0.66-2.5,1.07-3.04,2.01
	c-0.82,1.43-1.97,1-3.04,1.21c0-0.96,0-1.92,0-2.9c-2.43,0-4.64,0-6.92,0c-0.05,0.52-0.11,0.88-0.12,1.24
	c-0.03,2.87-0.09,2.91-2.9,3.08c-0.98,0.06-2.42-0.11-2.85,0.44c-0.89,1.14-1.93,0.97-2.99,1.01c-1.5,0.06-3,0.01-4.49,0.06
	c-0.81,0.03-1.62,0.19-2.45,0.3c0.63,2.11,1.94,2.64,3.63,2.21c1.01-0.26,1.92-1.05,2.92-1.17c2.96-0.34,6.01,0.16,8.83-1.26
	c1.37-0.69,3.37-0.84,4.1-1.91C427.34,437.54,428.43,437.92,429.63,437.86z"/>
<path class="st0" d="M517.28,321.32c-0.18,0.73-0.49,1.38,0.7,1.69c0.64,0.17,1.19,0.9,1.66,1.47c0.79,0.97,1.27,2.36,2.25,2.98
	c2.19,1.38,0.47,4.39,2.64,5.68c0.23,0.14,0.19,0.81,0.19,1.23c0.02,1.5,0.06,3-0.01,4.49c-0.05,1.05,0.35,2.31-1.14,2.85
	c-0.18,0.06-0.1,0.7-0.25,1.01c-0.29,0.57-0.67,1.09-1.01,1.63c-0.15,0.24-0.4,0.48-0.41,0.73c-0.12,1.85-1.45,2.73-2.75,3.73
	c-0.83,0.65-1.26,1.88-2.13,2.4c-1.29,0.76-2.79,1.21-4.24,1.62c-1.05,0.3-2.26-0.24-3.08,1.11c-0.48,0.8-4.43,0.27-5.18-0.41
	c-0.29-0.26-0.68-0.45-1.06-0.55c-1.77-0.46-3.59-0.77-5.33-1.34c-0.78-0.26-1.46-0.93-2.06-1.55c-1.5-1.54-3.51-2.93-4.22-4.79
	c-0.66-1.74-2.37-3.08-2.01-5.37c0.36-2.25,0.02-4.6,0.13-6.91c0.05-1.12-0.53-2.61,1.25-3.11c0.11-0.03,0.18-0.45,0.17-0.68
	c-0.08-1.77,1.16-2.58,2.41-3.42c0.66-0.45,1.28-0.99,1.82-1.58c0.69-0.75,1.29-1.59,1.92-2.4c0.07-0.09,0.14-0.26,0.22-0.27
	c2.04-0.2,3.41-2.28,5.74-1.87c0.83,0.14,1.79-0.67,2.73-0.93c0.63-0.17,1.72-0.41,1.92-0.13c1.14,1.59,2.79,0.99,4.24,1.24
	c0.9,0.15,1.94-0.23,2.45,1.15c0.14,0.38,1.66,0.25,2.54,0.35C517.34,321.38,517.28,321.32,517.28,321.32z M506.02,338.43
	c0,2-0.12,3.5,0.04,4.97c0.13,1.27-0.68,2.8,0.49,3.84c0.2-0.03,0.4-0.05,0.6-0.08c0-2.77,0-5.55,0-8.38
	c3.41-0.51,6.74,0.29,9.9-0.48c-0.01-0.34-0.01-0.68-0.02-1.02c-3.21,0-6.41,0-10.09,0c0-3.7,0-6.92,0-10.14
	c-0.21,0-0.43,0-0.64,0.01c-0.07,0.33-0.19,0.66-0.2,0.99c-0.03,2.24-0.07,4.49-0.05,6.73c0.02,1.54-0.57,2.3-2.2,2.23
	c-1.87-0.08-3.75-0.07-5.61-0.01c-0.74,0.03-1.47,0.31-2.2,0.48c0.04,0.28,0.07,0.56,0.11,0.85
	C499.3,338.43,502.48,338.43,506.02,338.43z"/>
<path class="st0" d="M573.43,321.45c0.24,0.49,0.39,1.07,0.74,1.46c0.71,0.78,1.55,1.44,2.31,2.17c0.7,0.66,1.36,1.38,2.1,2
	c0.17,0.14,0.59-0.03,0.9-0.06c0.27,1.11,0.55,2.22,0.82,3.34c0.09,0.36,0.23,0.72,0.23,1.08c0.03,3.74,0.19,7.49-0.05,11.21
	c-0.07,1.16-1.22,2.25-1.89,3.37c-0.12,0.21-0.38,0.38-0.41,0.59c-0.29,1.83-1.75,2.62-2.95,3.78c-1.56,1.5-3.78,1.55-5.17,2.69
	c-2.55,2.08-5.23,1.01-7.83,1.23c-1.14,0.1-2.41,0.42-3.39-1.1c-0.53-0.82-2.21-1.1-3.41-1.23c-1.89-0.21-2.67-1.36-3.49-2.84
	c-0.46-0.83-1.52-1.33-2.31-1.98c-0.13-0.11-0.37-0.21-0.38-0.34c-0.13-1.19-1.26-2.24-1.38-2.98c-0.5-3.11-2.66-5.98-1.63-9.33
	c0.15-0.49,0.43-0.94,0.7-1.38c0.14-0.24,0.48-0.38,0.57-0.62c0.58-1.64,1.04-3.33,1.7-4.94c0.23-0.55,0.93-0.89,1.39-1.36
	c1.48-1.51,2.92-3.06,4.44-4.54c0.26-0.25,0.85-0.13,1.23-0.3c0.59-0.27,1.12-0.69,1.72-0.95c0.55-0.24,1.14-0.48,1.72-0.49
	c2.81-0.05,5.61-0.06,8.42,0.02c0.48,0.01,0.92,0.62,1.43,0.74C570.84,321.02,572.14,321.21,573.43,321.45z M564.68,338.59
	c0-0.01,0-0.02,0-0.03c2.87,0,5.75,0.03,8.62-0.03c0.51-0.01,1-0.44,1.5-0.68c-0.5-0.27-0.99-0.55-1.5-0.79
	c-0.16-0.07-0.37-0.06-0.55-0.06c-5.56,0-11.12-0.02-16.67,0.04c-0.46,0-0.92,0.5-1.38,0.77c0.46,0.26,0.91,0.72,1.37,0.73
	C558.93,338.62,561.81,338.59,564.68,338.59z"/>
<path d="M968.28,325.69c-0.38-2.5-0.27-2.63,1.96-2.63c4.79,0,9.59-0.01,14.38-0.03c2.38-0.01,2.48,0.12,2.02,2.66
	C980.52,325.69,974.39,325.69,968.28,325.69z"/>
<path d="M1012.56,464.01c-0.96-0.7-1.86-1.13-2.44-1.83c-0.76-0.92-1.27-2.05-1.88-3.1c-0.43-0.74-0.78-1.54-1.3-2.2
	c-0.16-0.2-1.1-0.15-1.12-0.05c-0.58,1.98-2.94,0.82-3.93,2.32c-0.57,0.87-1.88,1.26-2.86,1.86c-0.17-0.12-0.35-0.25-0.52-0.37
	c0.08-0.47,0-1.22,0.26-1.36c1.58-0.84,2.55-2.55,4.56-2.85c0.8-0.12,1.46-1.23,2.14-1.94c0.09-0.09-0.02-0.54-0.16-0.65
	c-1.37-1-1.96-2.58-2.92-3.82c-0.84-1.08-1.39-1.88-1.2-3.31c0.31-0.05,0.84-0.26,0.95-0.13c0.71,0.89,1.3,1.86,1.97,2.77
	c0.71,0.96,1.46,1.89,2.2,2.82c0.27,0.34,0.5,0.76,0.85,0.99c0.25,0.16,0.75,0.19,1,0.04c0.48-0.28,0.84-0.77,1.3-1.1
	c1.18-0.85,2.32-1.81,3.61-2.45c0.7-0.35,1.68-0.14,2.9-0.2c-0.86,1.01-1.35,1.91-2.11,2.41c-1.11,0.73-2.45,1.09-3.6,1.78
	c-0.74,0.44-1.32,1.15-1.95,1.77c-0.1,0.1-0.11,0.41-0.03,0.54c0.68,1.07,1.33,2.17,2.09,3.18
	C1011.38,460.46,1013.12,461.37,1012.56,464.01z"/>
<path class="st1" d="M793.92,439.36c0.11,2.02-1.78,1.82-2.84,2.52c-1.42,0.94-2.9,1.8-4.37,2.67c-0.29,0.18-0.67,0.22-0.95,0.4
	c-1.23,0.79-2.44,1.61-3.65,2.42c-0.09,0.06-0.11,0.25-0.2,0.29c-1.41,0.63-3.08,0.96-4.18,1.93c-1.36,1.2-3.55,0.24-4.53,2.07
	c-0.12,0.22-0.67,0.25-1.03,0.31c-1.14,0.22-2.36-0.13-3.25,1.23c-0.34,0.52-1.87,0.26-2.86,0.37c-1.05,0.12-2.28-0.28-2.91,1.1
	c-0.11,0.23-0.79,0.26-1.21,0.28c-1.5,0.09-3.01,0.03-4.48,0.24c-0.94,0.14-1.82,0.69-2.74,1.01c-0.46,0.16-0.95,0.27-1.43,0.27
	c-8.8,0.02-17.61,0.05-26.41-0.01c-0.67,0-1.34-0.61-2-0.94c-0.16-0.08-0.27-0.27-0.43-0.32c-1.83-0.51-3.66-1-5.42-1.48
	c-0.15-1.69-0.07-2.5,1.28-3.49c2.32-1.71,3.85-4.51,6.21-6.15c1.51-1.05,3.11-2.09,4.62-3.19c1.78-1.29,3.43-2.74,5.16-4.1
	c0.26-0.21,0.69-0.2,0.97-0.39c1.17-0.78,2.31-1.6,3.46-2.42c0.14-0.1,0.17-0.37,0.3-0.43c2.27-0.98,4.59-1.88,6.83-2.93
	c1.5-0.7,2.91-1.62,4.36-2.44c1.04-0.6,2.02-1.35,3.12-1.77c1.78-0.68,3.66-1.12,5.48-1.7c0.43-0.14,0.81-0.43,1.19-0.7
	c0.23-0.17,0.38-0.55,0.61-0.6c2.13-0.44,4.28-0.82,6.42-1.23c1.18-0.23,2.69,0.45,3.37-1.27c0.08-0.21,0.8-0.16,1.23-0.24
	c1.16-0.2,2.56,0.27,3.22-1.29c0.08-0.18,0.69-0.13,1.06-0.2c1.09-0.2,2.41,0.26,3.06-1.24c0.12-0.28,1.03-0.22,1.57-0.3
	c1.05-0.16,2.29,0.25,2.89-1.16c0.1-0.23,0.78-0.22,1.2-0.29c1.1-0.19,2.46,0.26,2.99-1.28c0.03-0.08,0.21-0.12,0.33-0.14
	c1.82-0.41,3.64-0.84,5.47-1.2c1.2-0.23,2.62,0.27,3.39-1.27c0.13-0.26,0.92-0.2,1.41-0.27c0.99-0.14,2.06,0.18,2.72-1.1
	c0.2-0.39,1.37-0.28,2.1-0.39c1.16-0.18,2.57,0.3,3.25-1.25c0.08-0.19,0.68-0.17,1.04-0.23c1.31-0.24,2.85,0.34,3.78-1.3
	c0.19-0.34,1.3-0.12,1.97-0.24c1.16-0.2,2.58,0.3,3.28-1.2c0.06-0.12,0.31-0.18,0.48-0.21c2.19-0.41,4.77-0.23,6.49-1.36
	c2.01-1.32,4.68-0.54,6.31-2.61c0.94-1.19,2.23-2.11,3.38-3.13c1.6-1.43,3.33-2.75,4.79-4.31c1.61-1.72,2.95-3.68,4.46-5.49
	c0.42-0.51,1.04-0.85,1.52-1.33c1.48-1.48,2.83-3.11,4.45-4.4c0.55-0.44,1.75-0.07,2.83-0.07c-1.61,2.91-3.29,5.29-5.49,7.36
	c-0.82,0.77-0.78,2.33-1.98,3.12c-1.85,1.21-2.19,3.57-3.85,5.08c-1.94,1.78-3.25,4.23-4.96,6.29c-1.1,1.33-2.46,2.44-3.63,3.71
	c-1.18,1.28-2.23,2.68-3.4,3.98c-0.48,0.54-1.15,0.9-1.68,1.4c-0.85,0.79-1.65,1.62-2.47,2.42c-0.25,0.24-0.49,0.59-0.79,0.65
	c-1.66,0.38-2.55,1.63-3.61,2.81c-1,1.11-2.33,1.92-3.5,2.88c-1.72,1.42-3.39,2.91-5.16,4.27c-0.97,0.75-2.12,1.27-3.15,1.94
	c-0.77,0.51-1.5,1.09-2.23,1.66c-1.24,0.97-2.16,2.36-3.98,2.52c-0.53,0.05-0.98,0.86-1.49,1.28c-1.64,1.37-3.22,2.83-4.99,4.02
	c-0.73,0.49-1.86,0.4-2.81,0.57c-0.04-0.76-0.1-1.33,0.98-1.62c0.75-0.2,1.33-1.16,1.88-1.87c0.09-0.11-0.38-0.96-0.62-0.97
	c-2.21-0.08-4.42-0.05-6.6-0.05c-0.29,3.91-0.65,4.24-4.39,4.5c-0.85,0.06-1.72,0.19-2.54,0.41c-0.94,0.26-1.83,0.88-2.77,0.95
	c-2,0.15-4.02,0.05-6.27,0.05c1.28,2.2,3.27,3.26,4.2,2.28c1.1-1.16,2.33-0.86,3.58-1.03c2.95-0.39,5.88-0.87,8.82-1.31
	c0.18-0.03,0.46-0.09,0.49-0.2C791.24,438.74,792.75,439.53,793.92,439.36z"/>
<path class="st0" d="M826.86,315.68c0.23,1.51-0.81,3.4,1.3,4.35c0.01,3.23,0.03,6.46,0.04,9.69c-2.1,0.84-0.88,3.33-2.29,4.6
	c-0.84,0.75-1.29,1.9-2.05,2.76c-0.84,0.95-1.81,1.8-2.77,2.65c-0.24,0.21-0.66,0.24-1,0.34c-0.75,0.23-1.87-0.12-1.93,1.22
	c0,0.08-0.16,0.19-0.27,0.21c-2.57,0.53-5.12,1.13-7.71,1.51c-0.63,0.09-1.35-0.59-2.05-0.87c-0.49-0.2-1.01-0.34-1.53-0.47
	c-1.02-0.25-2.48,0.53-2.83-1.26c-0.02-0.11-0.43-0.19-0.67-0.2c-2.42-0.12-3.29-2.27-4.68-3.68c-1.03-1.04-1.85-2.3-2.71-3.5
	c-0.22-0.31-0.18-0.8-0.35-1.17c-0.31-0.65-0.71-1.26-1.01-1.92c-0.19-0.42-0.38-0.89-0.4-1.34c-0.07-1.81-0.16-3.62-0.06-5.42
	c0.07-1.3-0.55-2.9,1.21-3.72c0.19-0.09,0.14-0.69,0.21-1.06c0.36-1.72,1.36-3.02,2.64-4.18c0.48-0.43,0.84-1,1.21-1.54
	c1.05-1.58,2.85-2.19,4.17-3.24c1.73-1.37,3.36-0.87,4.98-1.34c0.68-0.2,1.35-0.86,1.97-0.8c2.53,0.26,5.34,0.15,7.46,1.29
	c1.55,0.83,3.51,1.34,4.74,2.79c1.14,1.35,2.17,2.8,3.31,4.15c0.19,0.22,0.73,0.15,1.11,0.21
	C826.91,315.74,826.86,315.68,826.86,315.68z M811.12,322.76c-1.13,0.06-1.99,0.14-2.86,0.15c-1.69,0.02-3.38-0.08-5.05,0.03
	c-0.69,0.04-1.35,0.49-2.02,0.75c0.7,0.26,1.38,0.69,2.09,0.73c1.68,0.1,3.37,0.02,5.05,0.02c2.57,0,2.78,0.2,2.8,2.73
	c0.01,2.12,0.01,4.24,0.08,6.36c0.01,0.29,0.43,0.57,0.66,0.86c0.22-0.3,0.61-0.58,0.63-0.89c0.07-1.68,0.06-3.37,0.07-5.05
	c0.01-1.28,0-2.56,0-4c2.77,0,5.13,0.03,7.49-0.03c0.43-0.01,0.84-0.44,1.26-0.68c-0.44-0.28-0.87-0.78-1.31-0.79
	c-2.41-0.08-4.82-0.04-7.43-0.04c0-2.6,0.03-4.96-0.03-7.32c-0.01-0.44-0.4-0.86-0.61-1.3c-0.27,0.44-0.76,0.87-0.78,1.32
	C811.07,317.92,811.12,320.22,811.12,322.76z"/>
<path class="st0" d="M942.28,479.42c2.24,0.51,1.81-1.72,2.36-2.64c0.76-1.25,1.9-1.92,2.77-2.94c0.32-0.38,0.35-1,0.52-1.51
	c1.18-0.08,2.66,0.62,3.17-1.26c0.04-0.15,0.71-0.08,1.03-0.22c0.56-0.24,1.07-0.6,1.63-0.86c0.48-0.23,0.98-0.55,1.48-0.56
	c2.3-0.07,4.61-0.11,6.91-0.02c0.54,0.02,1.06,0.57,1.58,0.9c0.15,0.09,0.24,0.3,0.39,0.36c1.63,0.59,3.32,1.04,4.88,1.77
	c0.84,0.4,1.48,1.25,2.17,1.93c0.7,0.68,1.35,1.41,2.03,2.12c0.16,0.16,0.46,0.27,0.49,0.44c0.18,1.1,0.87,1.94,1.31,2.84
	c1.53,3.17,2.67,6.76,1.54,10.27c-0.47,1.46-1.38,2.8-1.37,4.43c0,0.24,0.09,0.49,0.13,0.73c-0.78-0.22-1.11-0.18-1.61,0.78
	c-0.76,1.46-2.15,2.6-3.31,3.86c-0.73,0.8-1.52,1.55-2.28,2.32c-0.12,0.12-0.2,0.36-0.33,0.39c-1.71,0.44-3.4,1.02-5.14,1.22
	c-1.91,0.22-3.88,0.27-5.78,0.06c-2.25-0.25-4.5-0.74-6.69-1.36c-0.83-0.23-1.54-1.05-2.18-1.72c-0.7-0.74-1.08-1.88-1.89-2.39
	c-1.37-0.87-1.69-2.22-2.42-3.46c-2.88-4.89-0.94-10.07-1.29-15.1C942.38,479.65,942.32,479.54,942.28,479.42z M966.42,483.72
	c0.13-0.66,0.32-1.26,0.34-1.86c0.01-0.28-0.26-0.72-0.51-0.81c-0.28-0.1-0.9,0.01-0.98,0.2c-0.71,1.6-2.52,1.64-3.66,2.65
	c-0.85,0.76-2.43,0.73-3.23,1.52c-1.25,1.22-2.2,2.7-4.19,2.77c-0.18,0.01-0.39,0.24-0.52,0.42c-0.86,1.21-1.69,2.45-3.38,2.61
	c-0.23,0.02-0.51,0.31-0.63,0.54c-0.06,0.12,0.2,0.59,0.29,0.58c1.11-0.09,2.41,0.07,3.28-0.46c1.29-0.78,2.08-2.34,3.83-2.49
	c0.26-0.02,0.55-0.23,0.75-0.43c1.12-1.05,2.02-2.41,3.76-2.54c0.23-0.02,0.6-0.08,0.66-0.23
	C963.06,484.42,964.61,483.88,966.42,483.72z"/>
<path d="M429.63,437.86c-1.2,0.06-2.28-0.32-3.3,1.16c-0.73,1.07-2.73,1.22-4.1,1.91c-2.82,1.42-5.88,0.91-8.83,1.26
	c-1,0.12-1.91,0.91-2.92,1.17c-1.69,0.43-3-0.11-3.63-2.21c0.83-0.11,1.64-0.27,2.45-0.3c1.5-0.06,3,0,4.49-0.06
	c1.07-0.04,2.1,0.13,2.99-1.01c0.43-0.55,1.86-0.38,2.85-0.44c2.8-0.17,2.86-0.22,2.9-3.08c0-0.36,0.07-0.72,0.12-1.24
	c2.29,0,4.5,0,6.92,0c0,0.98,0,1.94,0,2.9C429.57,437.92,429.63,437.86,429.63,437.86z"/>
<path d="M506.02,338.43c-3.54,0-6.72,0-9.89,0c-0.04-0.28-0.07-0.56-0.11-0.85c0.73-0.17,1.46-0.46,2.2-0.48
	c1.87-0.07,3.75-0.07,5.61,0.01c1.63,0.07,2.22-0.69,2.2-2.23c-0.03-2.24,0.01-4.49,0.05-6.73c0-0.33,0.13-0.66,0.2-0.99
	c0.21,0,0.43,0,0.64-0.01c0,3.22,0,6.44,0,10.14c3.68,0,6.89,0,10.09,0c0.01,0.34,0.01,0.68,0.02,1.02
	c-3.16,0.77-6.49-0.03-9.9,0.48c0,2.83,0,5.6,0,8.38c-0.2,0.03-0.4,0.05-0.6,0.08c-1.17-1.04-0.35-2.58-0.49-3.84
	C505.9,341.93,506.02,340.43,506.02,338.43z"/>
<path d="M564.68,338.59c-2.87,0-5.75,0.03-8.62-0.03c-0.46-0.01-0.92-0.48-1.37-0.73c0.46-0.27,0.92-0.77,1.38-0.77
	c5.56-0.06,11.12-0.04,16.67-0.04c0.19,0,0.4-0.02,0.55,0.06c0.51,0.24,1,0.52,1.5,0.79c-0.5,0.24-1,0.67-1.5,0.68
	c-2.87,0.07-5.74,0.03-8.62,0.03C564.68,338.57,564.68,338.58,564.68,338.59z"/>
<path d="M793.92,439.36c-1.17,0.17-2.69-0.62-3.27,1.19c-0.04,0.11-0.32,0.18-0.49,0.2c-2.94,0.45-5.88,0.92-8.82,1.31
	c-1.25,0.17-2.47-0.13-3.58,1.03c-0.93,0.98-2.92-0.07-4.2-2.28c2.25,0,4.26,0.1,6.27-0.05c0.94-0.07,1.83-0.69,2.77-0.95
	c0.82-0.22,1.69-0.35,2.54-0.41c3.74-0.25,4.1-0.59,4.39-4.5c2.18,0,4.39-0.03,6.6,0.05c0.23,0.01,0.7,0.86,0.62,0.97
	c-0.55,0.71-1.13,1.67-1.88,1.87c-1.09,0.29-1.03,0.86-0.98,1.62C793.86,439.42,793.92,439.36,793.92,439.36z"/>
<path d="M811.12,322.76c0-2.54-0.04-4.85,0.04-7.15c0.02-0.45,0.51-0.88,0.78-1.32c0.21,0.43,0.6,0.86,0.61,1.3
	c0.06,2.36,0.03,4.71,0.03,7.32c2.61,0,5.02-0.04,7.43,0.04c0.45,0.01,0.88,0.52,1.31,0.79c-0.42,0.24-0.83,0.67-1.26,0.68
	c-2.36,0.07-4.72,0.03-7.49,0.03c0,1.44,0.01,2.72,0,4c-0.01,1.68,0.01,3.37-0.07,5.05c-0.01,0.3-0.41,0.59-0.63,0.89
	c-0.23-0.29-0.65-0.57-0.66-0.86c-0.08-2.12-0.07-4.24-0.08-6.36c-0.02-2.53-0.22-2.73-2.8-2.73c-1.69,0-3.38,0.09-5.05-0.02
	c-0.71-0.04-1.4-0.48-2.09-0.73c0.67-0.26,1.34-0.71,2.02-0.75c1.68-0.11,3.37-0.01,5.05-0.03
	C809.12,322.9,809.98,322.82,811.12,322.76z"/>
<path d="M966.42,483.72c-1.81,0.16-3.36,0.7-4.18,2.47c-0.07,0.15-0.43,0.22-0.66,0.23c-1.74,0.14-2.64,1.49-3.76,2.54
	c-0.21,0.19-0.49,0.41-0.75,0.43c-1.75,0.15-2.54,1.71-3.83,2.49c-0.87,0.53-2.17,0.37-3.28,0.46c-0.09,0.01-0.35-0.45-0.29-0.58
	c0.12-0.23,0.4-0.52,0.63-0.54c1.7-0.16,2.52-1.4,3.38-2.61c0.13-0.18,0.34-0.41,0.52-0.42c1.99-0.07,2.94-1.55,4.19-2.77
	c0.8-0.79,2.38-0.76,3.23-1.52c1.14-1.01,2.95-1.06,3.66-2.65c0.08-0.19,0.7-0.3,0.98-0.2c0.24,0.09,0.51,0.53,0.51,0.81
	C966.74,482.46,966.55,483.05,966.42,483.72z"/>
</svg>
