<?xml version="1.0" encoding="utf-8"?>
<svg width="1080px" height="550px" viewBox="0 0 1080 550" version="1.1" xmlns:xlink="http://www.w3.org/1999/xlink" xmlns="http://www.w3.org/2000/svg">
  <defs>
    <linearGradient x1="-1.0262935" y1="0.0027652304" x2="1.9396971" y2="0" id="gradient_1">
      <stop offset="0%" stop-color="#CCCCCC" />
      <stop offset="100%" stop-color="#000000" />
    </linearGradient>
    <radialGradient gradientUnits="objectBoundingBox" cx="-40.82658%" cy="-64.4566%" fx="-40.82658%" fy="-64.4566%" r="286.16098%" gradientTransform="translate(-0.4082658,-0.644566),scale(0.54835606,1),rotate(30.565351),translate(0.4082658,0.644566)" id="gradient_2">
      <stop offset="0%" stop-color="#FFFFFF" />
      <stop offset="100%" stop-color="#717171" />
    </radialGradient>
    <radialGradient gradientUnits="objectBoundingBox" cx="50%" cy="100%" fx="50%" fy="100%" r="304.39502%" gradientTransform="translate(0.5,1),scale(1,0.34782612),rotate(70.82106),translate(-0.5,-1)" id="gradient_3">
      <stop offset="0%" stop-color="#413331" />
      <stop offset="37.187336%" stop-color="#5D524C" />
      <stop offset="100%" stop-color="#72645B" />
    </radialGradient>
    <radialGradient gradientUnits="objectBoundingBox" cx="2.109336%" cy="-20.22013%" fx="2.109336%" fy="-20.22013%" r="243.3568%" gradientTransform="translate(0.02109336,-0.2022013),scale(0.51912385,1),rotate(35.860947),translate(-0.02109336,0.2022013)" id="gradient_4">
      <stop offset="0%" stop-color="#FFCDCD" />
      <stop offset="100%" stop-color="#782727" />
    </radialGradient>
    <radialGradient gradientUnits="objectBoundingBox" cx="0%" cy="0%" fx="0%" fy="0%" r="358.46173%" gradientTransform="translate(0,0),scale(0.29050282,1),rotate(16.198742),translate(-0,-0)" id="gradient_5">
      <stop offset="0%" stop-color="#E5AEAE" />
      <stop offset="100%" stop-color="#853A3A" />
    </radialGradient>
    <radialGradient gradientUnits="objectBoundingBox" cx="4.7130575%" cy="0.49087158%" fx="4.7130575%" fy="0.49087158%" r="908.09375%" gradientTransform="translate(0.047130574,0.004908716),scale(0.2264482,1),rotate(1.351066),scale(1,0.7231742),translate(-0.047130574,-0.004908716)" id="gradient_6">
      <stop offset="0%" stop-color="#B4B9E4" />
      <stop offset="100%" stop-color="#102AB8" />
    </radialGradient>
    <radialGradient gradientUnits="objectBoundingBox" cx="52.21367%" cy="-3.7466686%" fx="52.21367%" fy="-3.7466686%" r="327.60196%" gradientTransform="translate(0.5221367,-0.037466686),scale(1,0.33333337),rotate(-21.086876),translate(-0.5221367,0.037466686)" id="gradient_7">
      <stop offset="0%" stop-color="#927F71" />
      <stop offset="31.658333%" stop-color="#564C47" />
      <stop offset="100%" stop-color="#584040" />
    </radialGradient>
    <radialGradient gradientUnits="objectBoundingBox" cx="4.7130575%" cy="0.49087158%" fx="4.7130575%" fy="0.49087158%" r="907.76855%" gradientTransform="translate(0.047130574,0.004908716),scale(0.22652936,1),rotate(1.3515499),scale(1,0.7231742),translate(-0.047130574,-0.004908716)" id="gradient_8">
      <stop offset="0%" stop-color="#B4B9E4" />
      <stop offset="100%" stop-color="#102AB8" />
    </radialGradient>
    <rect width="1080" height="550" id="artboard_1" />
    <clipPath id="clip_1">
      <use xlink:href="#artboard_1" clip-rule="evenodd" />
    </clipPath>
  </defs>
  <g id="illustration" clip-path="url(#clip_1)">
    <use xlink:href="#artboard_1" stroke="none" fill="#FFFFFF" fill-opacity="0" />
    <g id="Group" transform="translate(18 3.8248901)">
      <path d="M990.5 220.948L990.5 0.17511L817 542.675L990.5 220.948Z" id="Triangle" fill="url(#gradient_1)" fill-rule="evenodd" stroke="none" />
      <path d="M480.739 0L990.5 0L817.154 543.147L0 543.146L480.739 0Z" id="Rectangle-2" fill="url(#gradient_2)" fill-rule="evenodd" stroke="none" />
    </g>
    <g id="Group" transform="translate(433.8445 91)">
      <path d="M114.318 150.946L119.321 150.946Q119.518 150.946 119.714 150.956Q119.91 150.966 120.105 150.985Q120.301 151.004 120.495 151.033Q120.689 151.062 120.882 151.1Q121.074 151.138 121.265 151.186Q121.455 151.234 121.643 151.291Q121.831 151.348 122.016 151.414Q122.201 151.48 122.382 151.555Q122.564 151.63 122.741 151.714Q122.919 151.798 123.092 151.891Q123.265 151.983 123.434 152.084Q123.602 152.185 123.765 152.294Q123.929 152.404 124.086 152.521Q124.244 152.638 124.396 152.762Q124.548 152.887 124.693 153.019Q124.839 153.15 124.977 153.289Q125.116 153.428 125.248 153.574Q125.38 153.719 125.505 153.871Q125.629 154.023 125.746 154.18Q125.863 154.338 125.972 154.501Q126.081 154.665 126.182 154.833Q126.283 155.002 126.376 155.175Q126.468 155.348 126.552 155.525Q126.636 155.703 126.711 155.884Q126.787 156.066 126.853 156.251Q126.919 156.435 126.976 156.623Q127.033 156.811 127.081 157.002Q127.128 157.192 127.167 157.385Q127.205 157.577 127.234 157.772Q127.263 157.966 127.282 158.161Q127.301 158.357 127.311 158.553Q127.32 158.749 127.32 158.945L127.32 203.326Q127.32 203.522 127.311 203.718Q127.301 203.915 127.282 204.11Q127.263 204.305 127.234 204.5Q127.205 204.694 127.167 204.886Q127.128 205.079 127.081 205.27Q127.033 205.46 126.976 205.648Q126.919 205.836 126.853 206.021Q126.787 206.206 126.711 206.387Q126.636 206.568 126.552 206.746Q126.468 206.923 126.376 207.097Q126.283 207.27 126.182 207.438Q126.081 207.607 125.972 207.77Q125.863 207.933 125.746 208.091Q125.629 208.249 125.505 208.4Q125.38 208.552 125.248 208.698Q125.116 208.843 124.977 208.982Q124.839 209.121 124.693 209.253Q124.548 209.385 124.396 209.509Q124.244 209.634 124.086 209.751Q123.929 209.868 123.765 209.977Q123.602 210.086 123.434 210.187Q123.265 210.288 123.092 210.38Q122.919 210.473 122.741 210.557Q122.564 210.641 122.382 210.716Q122.201 210.791 122.016 210.857Q121.831 210.924 121.643 210.981Q121.455 211.038 121.265 211.085Q121.074 211.133 120.882 211.171Q120.689 211.21 120.495 211.238Q120.301 211.267 120.105 211.286Q119.91 211.306 119.714 211.315Q119.518 211.325 119.321 211.325L114.318 211.325Q114.122 211.325 113.926 211.315Q113.729 211.306 113.534 211.286Q113.339 211.267 113.144 211.238Q112.95 211.21 112.758 211.171Q112.565 211.133 112.374 211.085Q112.184 211.038 111.996 210.981Q111.808 210.924 111.623 210.857Q111.438 210.791 111.257 210.716Q111.076 210.641 110.898 210.557Q110.721 210.473 110.547 210.38Q110.374 210.288 110.206 210.187Q110.037 210.086 109.874 209.977Q109.711 209.868 109.553 209.751Q109.395 209.634 109.244 209.509Q109.092 209.385 108.946 209.253Q108.801 209.121 108.662 208.982Q108.523 208.843 108.391 208.698Q108.259 208.552 108.135 208.4Q108.01 208.249 107.893 208.091Q107.776 207.933 107.667 207.77Q107.558 207.607 107.457 207.438Q107.356 207.27 107.264 207.097Q107.171 206.923 107.087 206.746Q107.003 206.568 106.928 206.387Q106.853 206.206 106.787 206.021Q106.72 205.836 106.663 205.648Q106.606 205.46 106.559 205.27Q106.511 205.079 106.473 204.886Q106.434 204.694 106.406 204.5Q106.377 204.305 106.358 204.11Q106.338 203.915 106.329 203.718Q106.319 203.522 106.319 203.326L106.319 158.945Q106.319 158.749 106.329 158.553Q106.338 158.357 106.358 158.161Q106.377 157.966 106.406 157.772Q106.434 157.577 106.473 157.385Q106.511 157.192 106.559 157.002Q106.606 156.811 106.663 156.623Q106.72 156.435 106.787 156.251Q106.853 156.066 106.928 155.884Q107.003 155.703 107.087 155.525Q107.171 155.348 107.264 155.175Q107.356 155.002 107.457 154.833Q107.558 154.665 107.667 154.501Q107.776 154.338 107.893 154.18Q108.01 154.023 108.135 153.871Q108.259 153.719 108.391 153.574Q108.523 153.428 108.662 153.289Q108.801 153.15 108.946 153.019Q109.092 152.887 109.244 152.762Q109.395 152.638 109.553 152.521Q109.711 152.404 109.874 152.294Q110.037 152.185 110.206 152.084Q110.374 151.983 110.547 151.891Q110.721 151.798 110.898 151.714Q111.076 151.63 111.257 151.555Q111.438 151.48 111.623 151.414Q111.808 151.348 111.996 151.291Q112.184 151.234 112.374 151.186Q112.565 151.138 112.758 151.1Q112.95 151.062 113.144 151.033Q113.339 151.004 113.534 150.985Q113.729 150.966 113.926 150.956Q114.122 150.946 114.318 150.946Z" id="Rectangle-2" fill="url(#gradient_3)" fill-rule="evenodd" stroke="none" />
      <path d="M0.000231756 63.0037C0.000231756 63.0037 -0.967 185.99 122.07 185.073C245.107 184.156 234.952 63.0037 234.952 63.0037" id="New-shape" fill="url(#gradient_4)" fill-rule="evenodd" stroke="none" />
      <path d="M0.000274658 63.0037C0.000274658 44.1559 52.5959 28.8767 117.476 28.8767C182.356 28.8767 234.952 44.1559 234.952 63.0037C234.952 81.8516 182.356 97.1307 117.476 97.1307C52.5959 97.1307 0.000274658 81.8516 0.000274658 63.0037Z" id="Ellipse" fill="url(#gradient_5)" fill-rule="evenodd" stroke="none" />
      <path d="M134.155 23.1123C126.69 22.0059 118.268 21.834 110.436 22.6665C95.5543 24.2456 85.9042 28.999 86.9091 34.2305L76.7486 34.456C75.4407 27.6401 88.0256 21.4526 107.374 19.3955C118.698 18.1924 130.98 18.6113 141.396 20.5073L151.142 17L153.742 26.727L123.149 27.0708L134.155 23.1123Z" id="Shape" fill="url(#gradient_6)" fill-rule="evenodd" stroke="none" />
      <path d="M115.507 0C115.507 1.58555e-06 115.507 1.58555e-06 115.507 1.58555e-06C116.551 0.00791983 117.592 0.0111166 118.63 0.138566C120.281 0.341366 121.926 0.858591 123.221 1.93772C123.529 2.19423 123.813 2.47862 124.07 2.78642C124.421 3.20773 124.719 3.67199 124.963 4.16289C125.303 4.84743 125.539 5.5804 125.696 6.32755C125.985 7.70255 125.997 9.10174 126.008 10.5006L126.008 57.3796C126.008 59.0359 124.976 61.2819 123.421 61.854C121.797 62.4517 119.277 63.0037 115.507 63.0037C111.738 63.0037 109.217 62.4517 107.593 61.854C106.038 61.2819 105.006 59.0359 105.006 57.3796C105.006 10.5006 105.006 10.5006 105.006 10.5006C105.014 9.45662 105.018 8.41548 105.145 7.37766C105.348 5.72625 105.865 4.08139 106.944 2.78648C107.201 2.47868 107.485 2.19429 107.793 1.93777C108.214 1.58665 108.678 1.28867 109.169 1.0446C109.854 0.704264 110.587 0.468637 111.334 0.31159C112.709 0.0225688 114.108 0.0106123 115.507 0Z" id="Rectangle-2" fill="url(#gradient_7)" fill-rule="evenodd" stroke="none" />
      <path d="M124.492 48.5605C120.201 49.0117 115.751 49.2427 111.333 49.2427C104.123 49.2427 96.9612 48.6143 90.5012 47.4434L80.7395 50.956L78.1555 41.229L108.733 40.8853L97.7427 44.8437C105.176 45.9448 113.598 46.1221 121.429 45.2895C136.311 43.7051 145.977 38.9463 144.972 33.7256L155.117 33.5C156.457 40.3052 143.856 46.498 124.492 48.5605L124.492 48.5605Z" id="Shape" fill="url(#gradient_8)" fill-rule="evenodd" stroke="none" />
    </g>
  </g>
</svg>